<?xml version="1.0" encoding="UTF-8"?><svg xmlns="http://www.w3.org/2000/svg" xmlns:xlink="http://www.w3.org/1999/xlink" fill-opacity="1" color-rendering="auto" color-interpolation="auto" text-rendering="auto" stroke="black" stroke-linecap="square" width="846" stroke-miterlimit="10" shape-rendering="auto" stroke-opacity="1" fill="black" stroke-dasharray="none" font-weight="normal" stroke-width="1" height="415" font-family="'Dialog'" font-style="normal" stroke-linejoin="miter" font-size="12px" stroke-dashoffset="0" image-rendering="auto">
  <!--Generated by ySVG 2.5-->
  <defs id="genericDefs"/>
  <g>
    <defs id="defs1">
      <clipPath clipPathUnits="userSpaceOnUse" id="clipPath1">
        <path d="M0 0 L846 0 L846 415 L0 415 L0 0 Z"/>
      </clipPath>
      <clipPath clipPathUnits="userSpaceOnUse" id="clipPath2">
        <path d="M409 183 L1255 183 L1255 598 L409 598 L409 183 Z"/>
      </clipPath>
      <clipPath clipPathUnits="userSpaceOnUse" id="clipPath3">
        <path d="M405 179 L1251 179 L1251 594 L405 594 L405 179 Z"/>
      </clipPath>
    </defs>
    <g fill="rgb(153,204,0)" text-rendering="geometricPrecision" shape-rendering="geometricPrecision" transform="matrix(1,0,0,1,-409,-183)" stroke="rgb(153,204,0)">
      <path d="M629.8721 230 L711.1279 230 L711.1279 245 L726.1279 245 L726.1279 258 L629.8721 258 Z" stroke="none" clip-path="url(#clipPath2)"/>
    </g>
    <g fill="white" text-rendering="geometricPrecision" shape-rendering="geometricPrecision" transform="matrix(1,0,0,1,-409,-183)" stroke="white">
      <path d="M711.1279 230 L711.1279 245 L726.1279 245 Z" fill-rule="evenodd" clip-path="url(#clipPath2)" stroke="none"/>
    </g>
    <g text-rendering="geometricPrecision" stroke-miterlimit="1.45" shape-rendering="geometricPrecision" transform="matrix(1,0,0,1,-409,-183)" stroke-linecap="butt">
      <path fill="none" d="M629.8721 230 L711.1279 230 L711.1279 245 L726.1279 245 L726.1279 258 L629.8721 258 Z" clip-path="url(#clipPath2)"/>
      <path fill="none" d="M711.1279 230 L711.1279 245 L726.1279 245 Z" clip-path="url(#clipPath2)" fill-rule="evenodd"/>
      <text x="658" font-size="20px" y="250.6" clip-path="url(#clipPath2)" font-family="'Ubuntu Mono'" stroke="none" xml:space="preserve">core</text>
    </g>
    <g fill="rgb(255,204,0)" text-rendering="geometricPrecision" shape-rendering="geometricPrecision" transform="matrix(1,0,0,1,-409,-183)" stroke="rgb(255,204,0)">
      <path d="M629.8721 295 L711.1279 295 L711.1279 310 L726.1279 310 L726.1279 323 L629.8721 323 Z" stroke="none" clip-path="url(#clipPath2)"/>
      <path fill="white" d="M711.1279 295 L711.1279 310 L726.1279 310 Z" clip-path="url(#clipPath2)" fill-rule="evenodd" stroke="none"/>
    </g>
    <g text-rendering="geometricPrecision" stroke-miterlimit="1.45" shape-rendering="geometricPrecision" transform="matrix(1,0,0,1,-409,-183)" stroke-linecap="butt">
      <path fill="none" d="M629.8721 295 L711.1279 295 L711.1279 310 L726.1279 310 L726.1279 323 L629.8721 323 Z" clip-path="url(#clipPath2)"/>
      <path fill="none" d="M711.1279 295 L711.1279 310 L726.1279 310 Z" clip-path="url(#clipPath2)" fill-rule="evenodd"/>
      <text x="653.0001" font-size="20px" y="315.6" clip-path="url(#clipPath2)" font-family="'Ubuntu Mono'" stroke="none" xml:space="preserve">unify</text>
    </g>
    <g fill="rgb(255,204,0)" text-rendering="geometricPrecision" shape-rendering="geometricPrecision" transform="matrix(1,0,0,1,-409,-183)" stroke="rgb(255,204,0)">
      <path d="M629.8721 360 L711.1279 360 L711.1279 375 L726.1279 375 L726.1279 388 L629.8721 388 Z" stroke="none" clip-path="url(#clipPath2)"/>
      <path fill="white" d="M711.1279 360 L711.1279 375 L726.1279 375 Z" clip-path="url(#clipPath2)" fill-rule="evenodd" stroke="none"/>
    </g>
    <g text-rendering="geometricPrecision" stroke-miterlimit="1.45" shape-rendering="geometricPrecision" transform="matrix(1,0,0,1,-409,-183)" stroke-linecap="butt">
      <path fill="none" d="M629.8721 360 L711.1279 360 L711.1279 375 L726.1279 375 L726.1279 388 L629.8721 388 Z" clip-path="url(#clipPath2)"/>
      <path fill="none" d="M711.1279 360 L711.1279 375 L726.1279 375 Z" clip-path="url(#clipPath2)" fill-rule="evenodd"/>
      <text x="648.0001" font-size="20px" y="380.6" clip-path="url(#clipPath2)" font-family="'Ubuntu Mono'" stroke="none" xml:space="preserve">theory</text>
    </g>
    <g fill="yellow" text-rendering="geometricPrecision" shape-rendering="geometricPrecision" transform="matrix(1,0,0,1,-409,-183)" stroke="yellow">
      <path d="M629.8721 425 L711.1279 425 L711.1279 440 L726.1279 440 L726.1279 453 L629.8721 453 Z" stroke="none" clip-path="url(#clipPath2)"/>
      <path fill="white" d="M711.1279 425 L711.1279 440 L726.1279 440 Z" clip-path="url(#clipPath2)" fill-rule="evenodd" stroke="none"/>
    </g>
    <g text-rendering="geometricPrecision" stroke-miterlimit="1.45" shape-rendering="geometricPrecision" transform="matrix(1,0,0,1,-409,-183)" stroke-linecap="butt">
      <path fill="none" d="M629.8721 425 L711.1279 425 L711.1279 440 L726.1279 440 L726.1279 453 L629.8721 453 Z" clip-path="url(#clipPath2)"/>
      <path fill="none" d="M711.1279 425 L711.1279 440 L726.1279 440 Z" clip-path="url(#clipPath2)" fill-rule="evenodd"/>
      <text x="653.0001" font-size="20px" y="445.6" clip-path="url(#clipPath2)" font-family="'Ubuntu Mono'" stroke="none" xml:space="preserve">solve</text>
    </g>
    <g fill="rgb(255,204,0)" text-rendering="geometricPrecision" shape-rendering="geometricPrecision" transform="matrix(1,0,0,1,-409,-183)" stroke="rgb(255,204,0)">
      <path d="M482.7441 490 L647 490 L647 505 L662 505 L662 518 L482.7441 518 Z" stroke="none" clip-path="url(#clipPath2)"/>
      <path fill="white" d="M647 490 L647 505 L662 505 Z" clip-path="url(#clipPath2)" fill-rule="evenodd" stroke="none"/>
    </g>
    <g text-rendering="geometricPrecision" stroke-miterlimit="1.45" shape-rendering="geometricPrecision" transform="matrix(1,0,0,1,-409,-183)" stroke-linecap="butt">
      <path fill="none" d="M482.7441 490 L647 490 L647 505 L662 505 L662 518 L482.7441 518 Z" clip-path="url(#clipPath2)"/>
      <path fill="none" d="M647 490 L647 505 L662 505 Z" clip-path="url(#clipPath2)" fill-rule="evenodd"/>
      <text x="507.3722" font-size="20px" y="510.6" clip-path="url(#clipPath2)" font-family="'Ubuntu Mono'" stroke="none" xml:space="preserve">solve-classic</text>
    </g>
    <g fill="rgb(255,204,0)" text-rendering="geometricPrecision" shape-rendering="geometricPrecision" transform="matrix(1,0,0,1,-409,-183)" stroke="rgb(255,204,0)">
      <path d="M692 490 L856.2559 490 L856.2559 505 L871.2559 505 L871.2559 518 L692 518 Z" stroke="none" clip-path="url(#clipPath2)"/>
      <path fill="white" d="M856.2559 490 L856.2559 505 L871.2559 505 Z" clip-path="url(#clipPath2)" fill-rule="evenodd" stroke="none"/>
    </g>
    <g text-rendering="geometricPrecision" stroke-miterlimit="1.45" shape-rendering="geometricPrecision" transform="matrix(1,0,0,1,-409,-183)" stroke-linecap="butt">
      <path fill="none" d="M692 490 L856.2559 490 L856.2559 505 L871.2559 505 L871.2559 518 L692 518 Z" clip-path="url(#clipPath2)"/>
      <path fill="none" d="M856.2559 490 L856.2559 505 L871.2559 505 Z" clip-path="url(#clipPath2)" fill-rule="evenodd"/>
      <text x="716.6281" font-size="20px" y="510.6" clip-path="url(#clipPath2)" font-family="'Ubuntu Mono'" stroke="none" xml:space="preserve">solve-streams</text>
    </g>
    <g fill="rgb(255,204,0)" text-rendering="geometricPrecision" shape-rendering="geometricPrecision" transform="matrix(1,0,0,1,-409,-183)" stroke="rgb(255,204,0)">
      <path d="M529.7441 555 L600 555 L600 570 L615 570 L615 583 L529.7441 583 Z" stroke="none" clip-path="url(#clipPath2)"/>
      <path fill="white" d="M600 555 L600 570 L615 570 Z" clip-path="url(#clipPath2)" fill-rule="evenodd" stroke="none"/>
    </g>
    <g text-rendering="geometricPrecision" stroke-miterlimit="1.45" shape-rendering="geometricPrecision" transform="matrix(1,0,0,1,-409,-183)" stroke-linecap="butt">
      <path fill="none" d="M529.7441 555 L600 555 L600 570 L615 570 L615 583 L529.7441 583 Z" clip-path="url(#clipPath2)"/>
      <path fill="none" d="M600 555 L600 570 L615 570 Z" clip-path="url(#clipPath2)" fill-rule="evenodd"/>
      <text x="552.3721" font-size="20px" y="575.6" clip-path="url(#clipPath2)" font-family="'Ubuntu Mono'" stroke="none" xml:space="preserve">repl</text>
    </g>
    <g fill="rgb(255,204,0)" text-rendering="geometricPrecision" shape-rendering="geometricPrecision" transform="matrix(1,0,0,1,-409,-183)" stroke="rgb(255,204,0)">
      <path d="M785.7441 230 L969 230 L969 245 L984 245 L984 258 L785.7441 258 Z" stroke="none" clip-path="url(#clipPath2)"/>
      <path fill="white" d="M969 230 L969 245 L984 245 Z" clip-path="url(#clipPath2)" fill-rule="evenodd" stroke="none"/>
    </g>
    <g text-rendering="geometricPrecision" stroke-miterlimit="1.45" shape-rendering="geometricPrecision" transform="matrix(1,0,0,1,-409,-183)" stroke-linecap="butt">
      <path fill="none" d="M785.7441 230 L969 230 L969 245 L984 245 L984 258 L785.7441 258 Z" clip-path="url(#clipPath2)"/>
      <path fill="none" d="M969 230 L969 245 L984 245 Z" clip-path="url(#clipPath2)" fill-rule="evenodd"/>
      <text x="814.8722" font-size="20px" y="250.6" clip-path="url(#clipPath2)" font-family="'Ubuntu Mono'" stroke="none" xml:space="preserve">serialize-core</text>
    </g>
    <g fill="rgb(255,204,0)" text-rendering="geometricPrecision" shape-rendering="geometricPrecision" transform="matrix(1,0,0,1,-409,-183)" stroke="rgb(255,204,0)">
      <path d="M785.7441 360 L969 360 L969 375 L984 375 L984 388 L785.7441 388 Z" stroke="none" clip-path="url(#clipPath2)"/>
      <path fill="white" d="M969 360 L969 375 L984 375 Z" clip-path="url(#clipPath2)" fill-rule="evenodd" stroke="none"/>
    </g>
    <g text-rendering="geometricPrecision" stroke-miterlimit="1.45" shape-rendering="geometricPrecision" transform="matrix(1,0,0,1,-409,-183)" stroke-linecap="butt">
      <path fill="none" d="M785.7441 360 L969 360 L969 375 L984 375 L984 388 L785.7441 388 Z" clip-path="url(#clipPath2)"/>
      <path fill="none" d="M969 360 L969 375 L984 375 Z" clip-path="url(#clipPath2)" fill-rule="evenodd"/>
      <text x="804.8722" font-size="20px" y="380.6" clip-path="url(#clipPath2)" font-family="'Ubuntu Mono'" stroke="none" xml:space="preserve">serialize-theory</text>
    </g>
    <g fill="rgb(255,204,0)" text-rendering="geometricPrecision" shape-rendering="geometricPrecision" transform="matrix(1,0,0,1,-409,-183)" stroke="rgb(255,204,0)">
      <path d="M424 230 L555.2559 230 L555.2559 245 L570.2559 245 L570.2559 258 L424 258 Z" stroke="none" clip-path="url(#clipPath2)"/>
      <path fill="white" d="M555.2559 230 L555.2559 245 L570.2559 245 Z" clip-path="url(#clipPath2)" fill-rule="evenodd" stroke="none"/>
    </g>
    <g text-rendering="geometricPrecision" stroke-miterlimit="1.45" shape-rendering="geometricPrecision" transform="matrix(1,0,0,1,-409,-183)" stroke-linecap="butt">
      <path fill="none" d="M424 230 L555.2559 230 L555.2559 245 L570.2559 245 L570.2559 258 L424 258 Z" clip-path="url(#clipPath2)"/>
      <path fill="none" d="M555.2559 230 L555.2559 245 L570.2559 245 Z" clip-path="url(#clipPath2)" fill-rule="evenodd"/>
      <text x="457.128" font-size="20px" y="250.6" clip-path="url(#clipPath2)" font-family="'Ubuntu Mono'" stroke="none" xml:space="preserve">dsl-core</text>
    </g>
    <g fill="rgb(255,204,0)" text-rendering="geometricPrecision" shape-rendering="geometricPrecision" transform="matrix(1,0,0,1,-409,-183)" stroke="rgb(255,204,0)">
      <path d="M424 295 L555.2559 295 L555.2559 310 L570.2559 310 L570.2559 323 L424 323 Z" stroke="none" clip-path="url(#clipPath2)"/>
      <path fill="white" d="M555.2559 295 L555.2559 310 L570.2559 310 Z" clip-path="url(#clipPath2)" fill-rule="evenodd" stroke="none"/>
    </g>
    <g text-rendering="geometricPrecision" stroke-miterlimit="1.45" shape-rendering="geometricPrecision" transform="matrix(1,0,0,1,-409,-183)" stroke-linecap="butt">
      <path fill="none" d="M424 295 L555.2559 295 L555.2559 310 L570.2559 310 L570.2559 323 L424 323 Z" clip-path="url(#clipPath2)"/>
      <path fill="none" d="M555.2559 295 L555.2559 310 L570.2559 310 Z" clip-path="url(#clipPath2)" fill-rule="evenodd"/>
      <text x="452.128" font-size="20px" y="315.6" clip-path="url(#clipPath2)" font-family="'Ubuntu Mono'" stroke="none" xml:space="preserve">dsl-unify</text>
    </g>
    <g fill="rgb(255,204,0)" text-rendering="geometricPrecision" shape-rendering="geometricPrecision" transform="matrix(1,0,0,1,-409,-183)" stroke="rgb(255,204,0)">
      <path d="M424 360 L555.2559 360 L555.2559 375 L570.2559 375 L570.2559 388 L424 388 Z" stroke="none" clip-path="url(#clipPath2)"/>
      <path fill="white" d="M555.2559 360 L555.2559 375 L570.2559 375 Z" clip-path="url(#clipPath2)" fill-rule="evenodd" stroke="none"/>
    </g>
    <g text-rendering="geometricPrecision" stroke-miterlimit="1.45" shape-rendering="geometricPrecision" transform="matrix(1,0,0,1,-409,-183)" stroke-linecap="butt">
      <path fill="none" d="M424 360 L555.2559 360 L555.2559 375 L570.2559 375 L570.2559 388 L424 388 Z" clip-path="url(#clipPath2)"/>
      <path fill="none" d="M555.2559 360 L555.2559 375 L570.2559 375 Z" clip-path="url(#clipPath2)" fill-rule="evenodd"/>
      <text x="447.128" font-size="20px" y="380.6" clip-path="url(#clipPath2)" font-family="'Ubuntu Mono'" stroke="none" xml:space="preserve">dsl-theory</text>
    </g>
    <g fill="rgb(255,204,0)" text-rendering="geometricPrecision" shape-rendering="geometricPrecision" transform="matrix(1,0,0,1,-409,-183)" stroke="rgb(255,204,0)">
      <path d="M1002.6162 230 L1158.8721 230 L1158.8721 245 L1173.8721 245 L1173.8721 258 L1002.6162 258 Z" stroke="none" clip-path="url(#clipPath2)"/>
      <path fill="white" d="M1158.8721 230 L1158.8721 245 L1173.8721 245 Z" clip-path="url(#clipPath2)" fill-rule="evenodd" stroke="none"/>
    </g>
    <g text-rendering="geometricPrecision" stroke-miterlimit="1.45" shape-rendering="geometricPrecision" transform="matrix(1,0,0,1,-409,-183)" stroke-linecap="butt">
      <path fill="none" d="M1002.6162 230 L1158.8721 230 L1158.8721 245 L1173.8721 245 L1173.8721 258 L1002.6162 258 Z" clip-path="url(#clipPath2)"/>
      <path fill="none" d="M1158.8721 230 L1158.8721 245 L1173.8721 245 Z" clip-path="url(#clipPath2)" fill-rule="evenodd"/>
      <text x="1033.2443" font-size="20px" y="250.6" clip-path="url(#clipPath2)" font-family="'Ubuntu Mono'" stroke="none" xml:space="preserve">parser-core</text>
    </g>
    <g fill="rgb(255,204,0)" text-rendering="geometricPrecision" shape-rendering="geometricPrecision" transform="matrix(1,0,0,1,-409,-183)" stroke="rgb(255,204,0)">
      <path d="M1002.6162 360 L1158.8721 360 L1158.8721 375 L1173.8721 375 L1173.8721 388 L1002.6162 388 Z" stroke="none" clip-path="url(#clipPath2)"/>
      <path fill="white" d="M1158.8721 360 L1158.8721 375 L1173.8721 375 Z" clip-path="url(#clipPath2)" fill-rule="evenodd" stroke="none"/>
    </g>
    <g text-rendering="geometricPrecision" stroke-miterlimit="1.45" shape-rendering="geometricPrecision" transform="matrix(1,0,0,1,-409,-183)" stroke-linecap="butt">
      <path fill="none" d="M1002.6162 360 L1158.8721 360 L1158.8721 375 L1173.8721 375 L1173.8721 388 L1002.6162 388 Z" clip-path="url(#clipPath2)"/>
      <path fill="none" d="M1158.8721 360 L1158.8721 375 L1173.8721 375 Z" clip-path="url(#clipPath2)" fill-rule="evenodd"/>
      <text x="1023.2443" font-size="20px" y="380.6" clip-path="url(#clipPath2)" font-family="'Ubuntu Mono'" stroke="none" xml:space="preserve">parser-theory</text>
    </g>
    <g fill="white" text-rendering="geometricPrecision" shape-rendering="geometricPrecision" transform="matrix(1,0,0,1,-409,-183)" stroke="white">
      <path d="M933.2651 295 L1056.521 295 L1056.521 310 L1071.521 310 L1071.521 323 L933.2651 323 Z" stroke="none" clip-path="url(#clipPath2)"/>
      <path d="M1056.521 295 L1056.521 310 L1071.521 310 Z" clip-path="url(#clipPath2)" fill-rule="evenodd" stroke="none"/>
    </g>
    <g text-rendering="geometricPrecision" stroke-miterlimit="1.45" shape-rendering="geometricPrecision" transform="matrix(1,0,0,1,-409,-183)" stroke-linecap="butt">
      <path fill="none" d="M933.2651 295 L1056.521 295 L1056.521 310 L1071.521 310 L1071.521 323 L933.2651 323 Z" clip-path="url(#clipPath2)"/>
      <path fill="none" d="M1056.521 295 L1056.521 310 L1071.521 310 Z" clip-path="url(#clipPath2)" fill-rule="evenodd"/>
      <text x="952.3931" font-size="20px" y="315.6" clip-path="url(#clipPath2)" font-family="'Ubuntu Mono'" stroke="none" xml:space="preserve">parser-jvm</text>
    </g>
    <g fill="white" text-rendering="geometricPrecision" shape-rendering="geometricPrecision" transform="matrix(1,0,0,1,-409,-183)" stroke="white">
      <path d="M1101.521 295 L1224.7769 295 L1224.7769 310 L1239.7769 310 L1239.7769 323 L1101.521 323 Z" stroke="none" clip-path="url(#clipPath2)"/>
      <path d="M1224.7769 295 L1224.7769 310 L1239.7769 310 Z" clip-path="url(#clipPath2)" fill-rule="evenodd" stroke="none"/>
    </g>
    <g text-rendering="geometricPrecision" stroke-miterlimit="1.45" shape-rendering="geometricPrecision" transform="matrix(1,0,0,1,-409,-183)" stroke-linecap="butt">
      <path fill="none" d="M1101.521 295 L1224.7769 295 L1224.7769 310 L1239.7769 310 L1239.7769 323 L1101.521 323 Z" clip-path="url(#clipPath2)"/>
      <path fill="none" d="M1224.7769 295 L1224.7769 310 L1239.7769 310 Z" clip-path="url(#clipPath2)" fill-rule="evenodd"/>
      <text x="1120.6489" font-size="20px" y="315.6" clip-path="url(#clipPath2)" font-family="'Ubuntu Mono'" stroke="none" xml:space="preserve">parser-jvm</text>
      <path fill="none" d="M678 295.0034 L678 268.9961" clip-path="url(#clipPath2)"/>
      <path d="M678 257.9961 L672 269.9961 L684 269.9961 Z" clip-path="url(#clipPath2)" stroke="none"/>
      <path fill="none" d="M678 360.0034 L678 333.9961" clip-path="url(#clipPath2)"/>
      <path d="M678 322.9961 L672 334.9961 L684 334.9961 Z" clip-path="url(#clipPath2)" stroke="none"/>
      <path fill="none" d="M678 425.0034 L678 398.9961" clip-path="url(#clipPath2)"/>
      <path d="M678 387.9961 L672 399.9961 L684 399.9961 Z" clip-path="url(#clipPath2)" stroke="none"/>
      <path fill="none" d="M595.1429 489.9875 L645.8541 458.7816" clip-path="url(#clipPath2)"/>
      <path d="M655.2224 453.0166 L641.8579 454.1956 L648.1469 464.4156 Z" clip-path="url(#clipPath2)" stroke="none"/>
      <path fill="none" d="M759.2882 489.9875 L709.6649 458.8616" clip-path="url(#clipPath2)"/>
      <path d="M700.3463 453.0166 L707.3239 464.4758 L713.7002 454.3101 Z" clip-path="url(#clipPath2)" stroke="none"/>
      <path fill="none" d="M572.3721 555.0034 L572.3721 528.996" clip-path="url(#clipPath2)"/>
      <path d="M572.3721 517.996 L566.3721 529.996 L578.3721 529.996 Z" clip-path="url(#clipPath2)" stroke="none"/>
      <path fill="none" d="M785.7543 244 L737.1158 244" clip-path="url(#clipPath2)"/>
      <path d="M726.1158 244 L738.1158 250 L738.1158 238 Z" clip-path="url(#clipPath2)" stroke="none"/>
      <path fill="none" d="M785.7543 374 L737.1158 374" clip-path="url(#clipPath2)"/>
      <path d="M726.1158 374 L738.1158 380 L738.1158 368 Z" clip-path="url(#clipPath2)" stroke="none"/>
      <path fill="none" d="M884.8721 360.0034 L884.8721 269.019" clip-path="url(#clipPath2)"/>
      <path d="M884.8721 258.019 L878.8721 270.019 L890.8721 270.019 Z" clip-path="url(#clipPath2)" stroke="none"/>
      <path fill="none" d="M570.2981 244 L618.8549 244" clip-path="url(#clipPath2)"/>
      <path d="M629.8549 244 L617.8549 238 L617.8549 250 Z" clip-path="url(#clipPath2)" stroke="none"/>
      <path fill="none" d="M570.2981 309 L618.8549 309" clip-path="url(#clipPath2)"/>
      <path d="M629.8549 309 L617.8549 303 L617.8549 315 Z" clip-path="url(#clipPath2)" stroke="none"/>
      <path fill="none" d="M497.1279 295.0034 L497.1279 268.9961" clip-path="url(#clipPath2)"/>
      <path d="M497.1279 257.9961 L491.1279 269.9961 L503.1279 269.9961 Z" clip-path="url(#clipPath2)" stroke="none"/>
      <path fill="none" d="M570.2981 374 L618.8549 374" clip-path="url(#clipPath2)"/>
      <path d="M629.8549 374 L617.8549 368 L617.8549 380 Z" clip-path="url(#clipPath2)" stroke="none"/>
      <path fill="none" d="M497.1279 360.0034 L497.1279 333.9961" clip-path="url(#clipPath2)"/>
      <path d="M497.1279 322.9961 L491.1279 334.9961 L503.1279 334.9961 Z" clip-path="url(#clipPath2)" stroke="none"/>
      <path fill="none" d="M1053.2141 229.9995 L1036.9636 224.1619 L1011.3234 216.3684 L985.6831 209.9919 L960.0428 205.0324 L934.4026 201.4899 L908.7623 199.3644 L883.1221 198.6559 L857.4818 199.3644 L831.8416 201.4899 L806.2013 205.0324 L780.561 209.9919 L754.9208 216.3684 L729.2805 224.1619 L723.3824 226.2807" clip-path="url(#clipPath2)"/>
      <path d="M713.03 229.9995 L726.3519 231.5893 L722.295 220.2959 Z" clip-path="url(#clipPath2)" stroke="none"/>
      <path fill="none" d="M1088.2441 360.0034 L1088.2441 269.019" clip-path="url(#clipPath2)"/>
      <path d="M1088.2441 258.019 L1082.2441 270.019 L1094.2441 270.019 Z" clip-path="url(#clipPath2)" stroke="none"/>
      <path fill="none" d="M1050.7102 387.9956 L1036.9636 392.634 L1011.3234 399.9545 L985.6831 405.944 L960.0428 410.6025 L934.4026 413.93 L908.7623 415.9265 L883.1221 416.592 L857.4818 415.9265 L831.8416 413.93 L806.2013 410.6025 L780.561 405.944 L754.9208 399.9545 L729.2805 392.634 L725.9566 391.5125" clip-path="url(#clipPath2)"/>
      <path d="M715.5339 387.9956 L724.9858 397.5172 L728.8224 386.1471 Z" clip-path="url(#clipPath2)" stroke="none"/>
      <path fill="none" stroke-dasharray="6,2" d="M1069.7367 258.0125 L1024.8922 291.9653" clip-path="url(#clipPath2)"/>
      <path stroke-dasharray="6,2" d="M1021.7031 294.3798 L1034.8921 291.9198 L1021.7031 294.3798 L1027.6486 282.3526 Z" clip-path="url(#clipPath2)" stroke="none"/>
      <path fill="none" stroke-miterlimit="10" d="M1021.7031 294.3798 L1034.8921 291.9198 L1021.7031 294.3798 L1027.6486 282.3526 Z" clip-path="url(#clipPath2)" stroke-linecap="square"/>
      <path fill="none" stroke-dasharray="6,2" d="M1106.0087 258.0125 L1148.9534 291.8868" clip-path="url(#clipPath2)"/>
      <path stroke-dasharray="6,2" d="M1152.094 294.3641 L1146.3881 282.2215 L1152.094 294.3641 L1138.9564 291.6433 Z" clip-path="url(#clipPath2)" stroke="none"/>
      <path fill="none" stroke-miterlimit="10" d="M1152.094 294.3641 L1146.3881 282.2215 L1152.094 294.3641 L1138.9564 291.6433 Z" clip-path="url(#clipPath2)" stroke-linecap="square"/>
    </g>
    <g fill="rgb(210,210,210)" text-rendering="geometricPrecision" shape-rendering="geometricPrecision" transform="matrix(1,0,0,1,-409,-183) translate(4,4)" stroke="rgb(210,210,210)">
      <rect x="905.7" width="303.5209" height="133.1153" y="437.4423" clip-path="url(#clipPath3)" stroke="none"/>
    </g>
    <g fill="rgb(242,240,216)" text-rendering="geometricPrecision" shape-rendering="geometricPrecision" transform="matrix(1,0,0,1,-409,-183)" stroke="rgb(242,240,216)">
      <rect x="905.7" width="303.5209" height="133.1153" y="437.4423" clip-path="url(#clipPath2)" stroke="none"/>
      <rect x="905.7" y="437.4423" clip-path="url(#clipPath2)" fill="rgb(183,182,158)" width="303.5209" height="21.4609" stroke="none"/>
    </g>
    <g font-size="15px" stroke-linecap="butt" transform="matrix(1,0,0,1,-409,-183)" text-rendering="geometricPrecision" font-family="sans-serif" shape-rendering="geometricPrecision" stroke-miterlimit="1.45">
      <text x="1151.8572" xml:space="preserve" y="453.3657" clip-path="url(#clipPath2)" stroke="none">Legend</text>
      <rect fill="none" x="905.7" width="303.5209" height="133.1153" y="437.4423" clip-path="url(#clipPath2)"/>
    </g>
    <g fill="rgb(255,204,0)" text-rendering="geometricPrecision" shape-rendering="geometricPrecision" transform="matrix(1,0,0,1,-409,-183)" stroke="rgb(255,204,0)">
      <path d="M910.7 463.9033 L991.9559 463.9033 L991.9559 478.9033 L1006.9559 478.9033 L1006.9559 491.9033 L910.7 491.9033 Z" stroke="none" clip-path="url(#clipPath2)"/>
      <path fill="white" d="M991.9559 463.9033 L991.9559 478.9033 L1006.9559 478.9033 Z" clip-path="url(#clipPath2)" fill-rule="evenodd" stroke="none"/>
    </g>
    <g text-rendering="geometricPrecision" stroke-miterlimit="1.45" shape-rendering="geometricPrecision" transform="matrix(1,0,0,1,-409,-183)" stroke-linecap="butt">
      <path fill="none" d="M910.7 463.9033 L991.9559 463.9033 L991.9559 478.9033 L1006.9559 478.9033 L1006.9559 491.9033 L910.7 491.9033 Z" clip-path="url(#clipPath2)"/>
      <path fill="none" d="M991.9559 463.9033 L991.9559 478.9033 L1006.9559 478.9033 Z" clip-path="url(#clipPath2)" fill-rule="evenodd"/>
      <text x="928.828" font-size="20px" y="484.5033" clip-path="url(#clipPath2)" font-family="'Ubuntu Mono'" stroke="none" xml:space="preserve">module</text>
    </g>
    <g fill="rgb(153,204,0)" text-rendering="geometricPrecision" shape-rendering="geometricPrecision" transform="matrix(1,0,0,1,-409,-183)" stroke="rgb(153,204,0)">
      <path d="M910.7 499.7305 L991.9559 499.7305 L991.9559 514.7305 L1006.9559 514.7305 L1006.9559 527.7305 L910.7 527.7305 Z" stroke="none" clip-path="url(#clipPath2)"/>
      <path fill="white" d="M991.9559 499.7305 L991.9559 514.7305 L1006.9559 514.7305 Z" clip-path="url(#clipPath2)" fill-rule="evenodd" stroke="none"/>
    </g>
    <g text-rendering="geometricPrecision" stroke-miterlimit="1.45" shape-rendering="geometricPrecision" transform="matrix(1,0,0,1,-409,-183)" stroke-linecap="butt">
      <path fill="none" d="M910.7 499.7305 L991.9559 499.7305 L991.9559 514.7305 L1006.9559 514.7305 L1006.9559 527.7305 L910.7 527.7305 Z" clip-path="url(#clipPath2)"/>
      <path fill="none" d="M991.9559 499.7305 L991.9559 514.7305 L1006.9559 514.7305 Z" clip-path="url(#clipPath2)" fill-rule="evenodd"/>
      <text x="938.8279" font-size="20px" y="520.3304" clip-path="url(#clipPath2)" font-family="'Ubuntu Mono'" stroke="none" xml:space="preserve">root</text>
    </g>
    <g fill="yellow" text-rendering="geometricPrecision" shape-rendering="geometricPrecision" transform="matrix(1,0,0,1,-409,-183)" stroke="yellow">
      <path d="M910.7 535.5577 L991.9559 535.5577 L991.9559 550.5577 L1006.9559 550.5577 L1006.9559 563.5577 L910.7 563.5577 Z" stroke="none" clip-path="url(#clipPath2)"/>
      <path fill="white" d="M991.9559 535.5577 L991.9559 550.5577 L1006.9559 550.5577 Z" clip-path="url(#clipPath2)" fill-rule="evenodd" stroke="none"/>
    </g>
    <g text-rendering="geometricPrecision" stroke-miterlimit="1.45" shape-rendering="geometricPrecision" transform="matrix(1,0,0,1,-409,-183)" stroke-linecap="butt">
      <path fill="none" d="M910.7 535.5577 L991.9559 535.5577 L991.9559 550.5577 L1006.9559 550.5577 L1006.9559 563.5577 L910.7 563.5577 Z" clip-path="url(#clipPath2)"/>
      <path fill="none" d="M991.9559 535.5577 L991.9559 550.5577 L1006.9559 550.5577 Z" clip-path="url(#clipPath2)" fill-rule="evenodd"/>
      <text x="943.8279" font-size="20px" y="556.1577" clip-path="url(#clipPath2)" font-family="'Ubuntu Mono'" stroke="none" xml:space="preserve">api</text>
    </g>
    <g fill="white" text-rendering="geometricPrecision" shape-rendering="geometricPrecision" transform="matrix(1,0,0,1,-409,-183)" stroke="white">
      <path d="M1024.9651 463.9033 L1189.2209 463.9033 L1189.2209 478.9033 L1204.2209 478.9033 L1204.2209 491.9033 L1024.9651 491.9033 Z" stroke="none" clip-path="url(#clipPath2)"/>
      <path d="M1189.2209 463.9033 L1189.2209 478.9033 L1204.2209 478.9033 Z" clip-path="url(#clipPath2)" fill-rule="evenodd" stroke="none"/>
    </g>
    <g text-rendering="geometricPrecision" stroke-miterlimit="1.45" shape-rendering="geometricPrecision" transform="matrix(1,0,0,1,-409,-183)" stroke-linecap="butt">
      <path fill="none" d="M1024.9651 463.9033 L1189.2209 463.9033 L1189.2209 478.9033 L1204.2209 478.9033 L1204.2209 491.9033 L1024.9651 491.9033 Z" clip-path="url(#clipPath2)"/>
      <path fill="none" d="M1189.2209 463.9033 L1189.2209 478.9033 L1204.2209 478.9033 Z" clip-path="url(#clipPath2)" fill-rule="evenodd"/>
      <text x="1044.5931" font-size="20px" y="484.5033" clip-path="url(#clipPath2)" font-family="'Ubuntu Mono'" stroke="none" xml:space="preserve">implementation</text>
      <path fill="none" d="M1058.6359 520.5577 L1158.8859 520.5577" clip-path="url(#clipPath2)"/>
      <path d="M1169.8859 520.5577 L1157.8859 514.5577 L1157.8859 526.5577 Z" clip-path="url(#clipPath2)" stroke="none"/>
      <text x="1073.4803" xml:space="preserve" y="512.1183" clip-path="url(#clipPath2)" font-family="sans-serif" stroke="none">depends on</text>
      <path fill="none" stroke-dasharray="6,2" d="M1058.6359 550.5577 L1164.8859 550.5577" clip-path="url(#clipPath2)"/>
      <path stroke-dasharray="6,2" d="M1168.8859 550.5577 L1156.8859 544.5577 L1168.8859 550.5577 L1156.8859 556.5577 Z" clip-path="url(#clipPath2)" stroke="none"/>
      <path fill="none" stroke-miterlimit="10" d="M1168.8859 550.5577 L1156.8859 544.5577 L1168.8859 550.5577 L1156.8859 556.5577 Z" clip-path="url(#clipPath2)" stroke-linecap="square"/>
      <text x="1100.5148" xml:space="preserve" y="542.1183" clip-path="url(#clipPath2)" font-family="sans-serif" stroke="none">uses</text>
    </g>
  </g>
</svg>
