<?xml version="1.0" encoding="UTF-8"?><svg xmlns="http://www.w3.org/2000/svg" xmlns:xlink="http://www.w3.org/1999/xlink" fill-opacity="1" color-rendering="auto" color-interpolation="auto" text-rendering="auto" stroke="black" stroke-linecap="square" width="1087" stroke-miterlimit="10" shape-rendering="auto" stroke-opacity="1" fill="black" stroke-dasharray="none" font-weight="normal" stroke-width="1" height="474" font-family="'Dialog'" font-style="normal" stroke-linejoin="miter" font-size="12px" stroke-dashoffset="0" image-rendering="auto">
  <!--Generated by ySVG 2.6-->
  <defs id="genericDefs"/>
  <g>
    <defs id="defs1">
      <clipPath clipPathUnits="userSpaceOnUse" id="clipPath1">
        <path d="M0 0 L1087 0 L1087 474 L0 474 L0 0 Z"/>
      </clipPath>
      <clipPath clipPathUnits="userSpaceOnUse" id="clipPath2">
        <path d="M220 163 L1307 163 L1307 637 L220 637 L220 163 Z"/>
      </clipPath>
      <clipPath clipPathUnits="userSpaceOnUse" id="clipPath3">
        <path d="M216 159 L1303 159 L1303 633 L216 633 L216 159 Z"/>
      </clipPath>
    </defs>
    <g fill="white" text-rendering="geometricPrecision" shape-rendering="geometricPrecision" transform="translate(-220,-163)" stroke="white">
      <rect x="220" width="1087" height="474" y="163" clip-path="url(#clipPath2)" stroke="none"/>
    </g>
    <g fill="rgb(153,204,0)" text-rendering="geometricPrecision" shape-rendering="geometricPrecision" transform="matrix(1,0,0,1,-220,-163)" stroke="rgb(153,204,0)">
      <path d="M629.8721 230 L711.1279 230 L711.1279 245 L726.1279 245 L726.1279 258 L629.8721 258 Z" stroke="none" clip-path="url(#clipPath2)"/>
      <path fill="white" d="M711.1279 230 L711.1279 245 L726.1279 245 Z" clip-path="url(#clipPath2)" fill-rule="evenodd" stroke="none"/>
    </g>
    <g text-rendering="geometricPrecision" stroke-miterlimit="1.45" shape-rendering="geometricPrecision" transform="matrix(1,0,0,1,-220,-163)" stroke-linecap="butt">
      <path fill="none" d="M629.8721 230 L711.1279 230 L711.1279 245 L726.1279 245 L726.1279 258 L629.8721 258 Z" clip-path="url(#clipPath2)"/>
      <path fill="none" d="M711.1279 230 L711.1279 245 L726.1279 245 Z" clip-path="url(#clipPath2)" fill-rule="evenodd"/>
      <text x="657.0723" xml:space="preserve" font-size="20px" y="251.5586" clip-path="url(#clipPath2)" stroke="none">core</text>
    </g>
    <g fill="rgb(255,204,0)" text-rendering="geometricPrecision" shape-rendering="geometricPrecision" transform="matrix(1,0,0,1,-220,-163)" stroke="rgb(255,204,0)">
      <path d="M629.8721 295 L711.1279 295 L711.1279 310 L726.1279 310 L726.1279 323 L629.8721 323 Z" stroke="none" clip-path="url(#clipPath2)"/>
      <path fill="white" d="M711.1279 295 L711.1279 310 L726.1279 310 Z" clip-path="url(#clipPath2)" fill-rule="evenodd" stroke="none"/>
    </g>
    <g text-rendering="geometricPrecision" stroke-miterlimit="1.45" shape-rendering="geometricPrecision" transform="matrix(1,0,0,1,-220,-163)" stroke-linecap="butt">
      <path fill="none" d="M629.8721 295 L711.1279 295 L711.1279 310 L726.1279 310 L726.1279 323 L629.8721 323 Z" clip-path="url(#clipPath2)"/>
      <path fill="none" d="M711.1279 295 L711.1279 310 L726.1279 310 Z" clip-path="url(#clipPath2)" fill-rule="evenodd"/>
      <text x="653.7959" xml:space="preserve" font-size="20px" y="316.5586" clip-path="url(#clipPath2)" stroke="none">unify</text>
    </g>
    <g fill="rgb(255,204,0)" text-rendering="geometricPrecision" shape-rendering="geometricPrecision" transform="matrix(1,0,0,1,-220,-163)" stroke="rgb(255,204,0)">
      <path d="M629.8721 360 L711.1279 360 L711.1279 375 L726.1279 375 L726.1279 388 L629.8721 388 Z" stroke="none" clip-path="url(#clipPath2)"/>
      <path fill="white" d="M711.1279 360 L711.1279 375 L726.1279 375 Z" clip-path="url(#clipPath2)" fill-rule="evenodd" stroke="none"/>
    </g>
    <g text-rendering="geometricPrecision" stroke-miterlimit="1.45" shape-rendering="geometricPrecision" transform="matrix(1,0,0,1,-220,-163)" stroke-linecap="butt">
      <path fill="none" d="M629.8721 360 L711.1279 360 L711.1279 375 L726.1279 375 L726.1279 388 L629.8721 388 Z" clip-path="url(#clipPath2)"/>
      <path fill="none" d="M711.1279 360 L711.1279 375 L726.1279 375 Z" clip-path="url(#clipPath2)" fill-rule="evenodd"/>
      <text x="647.0234" xml:space="preserve" font-size="20px" y="381.5586" clip-path="url(#clipPath2)" stroke="none">theory</text>
    </g>
    <g fill="yellow" text-rendering="geometricPrecision" shape-rendering="geometricPrecision" transform="matrix(1,0,0,1,-220,-163)" stroke="yellow">
      <path d="M629.8721 425 L711.1279 425 L711.1279 440 L726.1279 440 L726.1279 453 L629.8721 453 Z" stroke="none" clip-path="url(#clipPath2)"/>
      <path fill="white" d="M711.1279 425 L711.1279 440 L726.1279 440 Z" clip-path="url(#clipPath2)" fill-rule="evenodd" stroke="none"/>
    </g>
    <g text-rendering="geometricPrecision" stroke-miterlimit="1.45" shape-rendering="geometricPrecision" transform="matrix(1,0,0,1,-220,-163)" stroke-linecap="butt">
      <path fill="none" d="M629.8721 425 L711.1279 425 L711.1279 440 L726.1279 440 L726.1279 453 L629.8721 453 Z" clip-path="url(#clipPath2)"/>
      <path fill="none" d="M711.1279 425 L711.1279 440 L726.1279 440 Z" clip-path="url(#clipPath2)" fill-rule="evenodd"/>
      <text x="653.1221" xml:space="preserve" font-size="20px" y="446.5586" clip-path="url(#clipPath2)" stroke="none">solve</text>
    </g>
    <g fill="rgb(255,204,0)" text-rendering="geometricPrecision" shape-rendering="geometricPrecision" transform="matrix(1,0,0,1,-220,-163)" stroke="rgb(255,204,0)">
      <path d="M731.1161 535.8364 L895.372 535.8364 L895.372 550.8364 L910.372 550.8364 L910.372 563.8364 L731.1161 563.8364 Z" stroke="none" clip-path="url(#clipPath2)"/>
      <path fill="white" d="M895.372 535.8364 L895.372 550.8364 L910.372 550.8364 Z" clip-path="url(#clipPath2)" fill-rule="evenodd" stroke="none"/>
    </g>
    <g text-rendering="geometricPrecision" stroke-miterlimit="1.45" shape-rendering="geometricPrecision" transform="matrix(1,0,0,1,-220,-163)" stroke-linecap="butt">
      <path fill="none" d="M731.1161 535.8364 L895.372 535.8364 L895.372 550.8364 L910.372 550.8364 L910.372 563.8364 L731.1161 563.8364 Z" clip-path="url(#clipPath2)"/>
      <path fill="none" d="M895.372 535.8364 L895.372 550.8364 L910.372 550.8364 Z" clip-path="url(#clipPath2)" fill-rule="evenodd"/>
      <text x="758.3369" xml:space="preserve" font-size="20px" y="557.395" clip-path="url(#clipPath2)" stroke="none">solve-classic</text>
    </g>
    <g fill="rgb(255,204,0)" text-rendering="geometricPrecision" shape-rendering="geometricPrecision" transform="matrix(1,0,0,1,-220,-163)" stroke="rgb(255,204,0)">
      <path d="M521.8603 559.5 L686.1161 559.5 L686.1161 574.5 L701.1161 574.5 L701.1161 587.5 L521.8603 587.5 Z" stroke="none" clip-path="url(#clipPath2)"/>
      <path fill="white" d="M686.1161 559.5 L686.1161 574.5 L701.1161 574.5 Z" clip-path="url(#clipPath2)" fill-rule="evenodd" stroke="none"/>
    </g>
    <g text-rendering="geometricPrecision" stroke-miterlimit="1.45" shape-rendering="geometricPrecision" transform="matrix(1,0,0,1,-220,-163)" stroke-linecap="butt">
      <path fill="none" d="M521.8603 559.5 L686.1161 559.5 L686.1161 574.5 L701.1161 574.5 L701.1161 587.5 L521.8603 587.5 Z" clip-path="url(#clipPath2)"/>
      <path fill="none" d="M686.1161 559.5 L686.1161 574.5 L701.1161 574.5 Z" clip-path="url(#clipPath2)" fill-rule="evenodd"/>
      <text x="542.3671" xml:space="preserve" font-size="20px" y="581.0586" clip-path="url(#clipPath2)" stroke="none">solve-streams</text>
    </g>
    <g fill="rgb(255,204,0)" text-rendering="geometricPrecision" shape-rendering="geometricPrecision" transform="matrix(1,0,0,1,-220,-163)" stroke="rgb(255,204,0)">
      <path d="M832.756 600.8364 L903.0118 600.8364 L903.0118 615.8364 L918.0118 615.8364 L918.0118 628.8364 L832.756 628.8364 Z" stroke="none" clip-path="url(#clipPath2)"/>
      <path fill="white" d="M903.0118 600.8364 L903.0118 615.8364 L918.0118 615.8364 Z" clip-path="url(#clipPath2)" fill-rule="evenodd" stroke="none"/>
    </g>
    <g text-rendering="geometricPrecision" stroke-miterlimit="1.45" shape-rendering="geometricPrecision" transform="matrix(1,0,0,1,-220,-163)" stroke-linecap="butt">
      <path fill="none" d="M832.756 600.8364 L903.0118 600.8364 L903.0118 615.8364 L918.0118 615.8364 L918.0118 628.8364 L832.756 628.8364 Z" clip-path="url(#clipPath2)"/>
      <path fill="none" d="M903.0118 600.8364 L903.0118 615.8364 L918.0118 615.8364 Z" clip-path="url(#clipPath2)" fill-rule="evenodd"/>
      <text x="856.5363" xml:space="preserve" font-size="20px" y="622.395" clip-path="url(#clipPath2)" stroke="none">repl</text>
    </g>
    <g fill="rgb(255,204,0)" text-rendering="geometricPrecision" shape-rendering="geometricPrecision" transform="matrix(1,0,0,1,-220,-163)" stroke="rgb(255,204,0)">
      <path d="M785.7441 230 L969 230 L969 245 L984 245 L984 258 L785.7441 258 Z" stroke="none" clip-path="url(#clipPath2)"/>
      <path fill="white" d="M969 230 L969 245 L984 245 Z" clip-path="url(#clipPath2)" fill-rule="evenodd" stroke="none"/>
    </g>
    <g text-rendering="geometricPrecision" stroke-miterlimit="1.45" shape-rendering="geometricPrecision" transform="matrix(1,0,0,1,-220,-163)" stroke-linecap="butt">
      <path fill="none" d="M785.7441 230 L969 230 L969 245 L984 245 L984 258 L785.7441 258 Z" clip-path="url(#clipPath2)"/>
      <path fill="none" d="M969 230 L969 245 L984 245 Z" clip-path="url(#clipPath2)" fill-rule="evenodd"/>
      <text x="817.8994" xml:space="preserve" font-size="20px" y="251.5586" clip-path="url(#clipPath2)" stroke="none">serialize-core</text>
    </g>
    <g fill="rgb(255,204,0)" text-rendering="geometricPrecision" shape-rendering="geometricPrecision" transform="matrix(1,0,0,1,-220,-163)" stroke="rgb(255,204,0)">
      <path d="M785.7441 360 L969 360 L969 375 L984 375 L984 388 L785.7441 388 Z" stroke="none" clip-path="url(#clipPath2)"/>
      <path fill="white" d="M969 360 L969 375 L984 375 Z" clip-path="url(#clipPath2)" fill-rule="evenodd" stroke="none"/>
    </g>
    <g text-rendering="geometricPrecision" stroke-miterlimit="1.45" shape-rendering="geometricPrecision" transform="matrix(1,0,0,1,-220,-163)" stroke-linecap="butt">
      <path fill="none" d="M785.7441 360 L969 360 L969 375 L984 375 L984 388 L785.7441 388 Z" clip-path="url(#clipPath2)"/>
      <path fill="none" d="M969 360 L969 375 L984 375 Z" clip-path="url(#clipPath2)" fill-rule="evenodd"/>
      <text x="807.8506" xml:space="preserve" font-size="20px" y="381.5586" clip-path="url(#clipPath2)" stroke="none">serialize-theory</text>
    </g>
    <g fill="rgb(255,204,0)" text-rendering="geometricPrecision" shape-rendering="geometricPrecision" transform="matrix(1,0,0,1,-220,-163)" stroke="rgb(255,204,0)">
      <path d="M424 230 L555.2559 230 L555.2559 245 L570.2559 245 L570.2559 258 L424 258 Z" stroke="none" clip-path="url(#clipPath2)"/>
      <path fill="white" d="M555.2559 230 L555.2559 245 L570.2559 245 Z" clip-path="url(#clipPath2)" fill-rule="evenodd" stroke="none"/>
    </g>
    <g text-rendering="geometricPrecision" stroke-miterlimit="1.45" shape-rendering="geometricPrecision" transform="matrix(1,0,0,1,-220,-163)" stroke-linecap="butt">
      <path fill="none" d="M424 230 L555.2559 230 L555.2559 245 L570.2559 245 L570.2559 258 L424 258 Z" clip-path="url(#clipPath2)"/>
      <path fill="none" d="M555.2559 230 L555.2559 245 L570.2559 245 Z" clip-path="url(#clipPath2)" fill-rule="evenodd"/>
      <text x="456.1318" xml:space="preserve" font-size="20px" y="251.5586" clip-path="url(#clipPath2)" stroke="none">dsl-core</text>
    </g>
    <g fill="rgb(255,204,0)" text-rendering="geometricPrecision" shape-rendering="geometricPrecision" transform="matrix(1,0,0,1,-220,-163)" stroke="rgb(255,204,0)">
      <path d="M424 295 L555.2559 295 L555.2559 310 L570.2559 310 L570.2559 323 L424 323 Z" stroke="none" clip-path="url(#clipPath2)"/>
      <path fill="white" d="M555.2559 295 L555.2559 310 L570.2559 310 Z" clip-path="url(#clipPath2)" fill-rule="evenodd" stroke="none"/>
    </g>
    <g text-rendering="geometricPrecision" stroke-miterlimit="1.45" shape-rendering="geometricPrecision" transform="matrix(1,0,0,1,-220,-163)" stroke-linecap="butt">
      <path fill="none" d="M424 295 L555.2559 295 L555.2559 310 L570.2559 310 L570.2559 323 L424 323 Z" clip-path="url(#clipPath2)"/>
      <path fill="none" d="M555.2559 295 L555.2559 310 L570.2559 310 Z" clip-path="url(#clipPath2)" fill-rule="evenodd"/>
      <text x="452.8555" xml:space="preserve" font-size="20px" y="316.5586" clip-path="url(#clipPath2)" stroke="none">dsl-unify</text>
    </g>
    <g fill="rgb(255,204,0)" text-rendering="geometricPrecision" shape-rendering="geometricPrecision" transform="matrix(1,0,0,1,-220,-163)" stroke="rgb(255,204,0)">
      <path d="M424 360 L555.2559 360 L555.2559 375 L570.2559 375 L570.2559 388 L424 388 Z" stroke="none" clip-path="url(#clipPath2)"/>
      <path fill="white" d="M555.2559 360 L555.2559 375 L570.2559 375 Z" clip-path="url(#clipPath2)" fill-rule="evenodd" stroke="none"/>
    </g>
    <g text-rendering="geometricPrecision" stroke-miterlimit="1.45" shape-rendering="geometricPrecision" transform="matrix(1,0,0,1,-220,-163)" stroke-linecap="butt">
      <path fill="none" d="M424 360 L555.2559 360 L555.2559 375 L570.2559 375 L570.2559 388 L424 388 Z" clip-path="url(#clipPath2)"/>
      <path fill="none" d="M555.2559 360 L555.2559 375 L570.2559 375 Z" clip-path="url(#clipPath2)" fill-rule="evenodd"/>
      <text x="446.083" xml:space="preserve" font-size="20px" y="381.5586" clip-path="url(#clipPath2)" stroke="none">dsl-theory</text>
    </g>
    <g fill="rgb(255,204,0)" text-rendering="geometricPrecision" shape-rendering="geometricPrecision" transform="matrix(1,0,0,1,-220,-163)" stroke="rgb(255,204,0)">
      <path d="M1002.6162 230 L1158.8721 230 L1158.8721 245 L1173.8721 245 L1173.8721 258 L1002.6162 258 Z" stroke="none" clip-path="url(#clipPath2)"/>
      <path fill="white" d="M1158.8721 230 L1158.8721 245 L1173.8721 245 Z" clip-path="url(#clipPath2)" fill-rule="evenodd" stroke="none"/>
    </g>
    <g text-rendering="geometricPrecision" stroke-miterlimit="1.45" shape-rendering="geometricPrecision" transform="matrix(1,0,0,1,-220,-163)" stroke-linecap="butt">
      <path fill="none" d="M1002.6162 230 L1158.8721 230 L1158.8721 245 L1173.8721 245 L1173.8721 258 L1002.6162 258 Z" clip-path="url(#clipPath2)"/>
      <path fill="none" d="M1158.8721 230 L1158.8721 245 L1173.8721 245 Z" clip-path="url(#clipPath2)" fill-rule="evenodd"/>
      <text x="1030.8613" xml:space="preserve" font-size="20px" y="251.5586" clip-path="url(#clipPath2)" stroke="none">parser-core</text>
    </g>
    <g fill="rgb(255,204,0)" text-rendering="geometricPrecision" shape-rendering="geometricPrecision" transform="matrix(1,0,0,1,-220,-163)" stroke="rgb(255,204,0)">
      <path d="M1002.6162 360 L1158.8721 360 L1158.8721 375 L1173.8721 375 L1173.8721 388 L1002.6162 388 Z" stroke="none" clip-path="url(#clipPath2)"/>
      <path fill="white" d="M1158.8721 360 L1158.8721 375 L1173.8721 375 Z" clip-path="url(#clipPath2)" fill-rule="evenodd" stroke="none"/>
    </g>
    <g text-rendering="geometricPrecision" stroke-miterlimit="1.45" shape-rendering="geometricPrecision" transform="matrix(1,0,0,1,-220,-163)" stroke-linecap="butt">
      <path fill="none" d="M1002.6162 360 L1158.8721 360 L1158.8721 375 L1173.8721 375 L1173.8721 388 L1002.6162 388 Z" clip-path="url(#clipPath2)"/>
      <path fill="none" d="M1158.8721 360 L1158.8721 375 L1173.8721 375 Z" clip-path="url(#clipPath2)" fill-rule="evenodd"/>
      <text x="1020.8125" xml:space="preserve" font-size="20px" y="381.5586" clip-path="url(#clipPath2)" stroke="none">parser-theory</text>
    </g>
    <g fill="white" text-rendering="geometricPrecision" shape-rendering="geometricPrecision" transform="matrix(1,0,0,1,-220,-163)" stroke="white">
      <path d="M925.2651 295 L1056.521 295 L1056.521 310 L1071.521 310 L1071.521 323 L925.2651 323 Z" stroke="none" clip-path="url(#clipPath2)"/>
      <path d="M1056.521 295 L1056.521 310 L1071.521 310 Z" clip-path="url(#clipPath2)" fill-rule="evenodd" stroke="none"/>
    </g>
    <g text-rendering="geometricPrecision" stroke-miterlimit="1.45" shape-rendering="geometricPrecision" transform="matrix(1,0,0,1,-220,-163)" stroke-linecap="butt">
      <path fill="none" d="M925.2651 295 L1056.521 295 L1056.521 310 L1071.521 310 L1071.521 323 L925.2651 323 Z" clip-path="url(#clipPath2)"/>
      <path fill="none" d="M1056.521 295 L1056.521 310 L1071.521 310 Z" clip-path="url(#clipPath2)" fill-rule="evenodd"/>
      <text x="944.3842" xml:space="preserve" font-size="20px" y="316.5586" clip-path="url(#clipPath2)" stroke="none">parser-jvm</text>
    </g>
    <g fill="white" text-rendering="geometricPrecision" shape-rendering="geometricPrecision" transform="matrix(1,0,0,1,-220,-163)" stroke="white">
      <path d="M1117.6489 295 L1240.9048 295 L1240.9048 310 L1255.9048 310 L1255.9048 323 L1117.6489 323 Z" stroke="none" clip-path="url(#clipPath2)"/>
      <path d="M1240.9048 295 L1240.9048 310 L1255.9048 310 Z" clip-path="url(#clipPath2)" fill-rule="evenodd" stroke="none"/>
    </g>
    <g text-rendering="geometricPrecision" stroke-miterlimit="1.45" shape-rendering="geometricPrecision" transform="matrix(1,0,0,1,-220,-163)" stroke-linecap="butt">
      <path fill="none" d="M1117.6489 295 L1240.9048 295 L1240.9048 310 L1255.9048 310 L1255.9048 323 L1117.6489 323 Z" clip-path="url(#clipPath2)"/>
      <path fill="none" d="M1240.9048 295 L1240.9048 310 L1255.9048 310 Z" clip-path="url(#clipPath2)" fill-rule="evenodd"/>
      <text x="1142.1821" xml:space="preserve" font-size="20px" y="316.5586" clip-path="url(#clipPath2)" stroke="none">parser-js</text>
      <path fill="none" d="M678 295.0034 L678 268.9961" clip-path="url(#clipPath2)"/>
      <path d="M678 257.9961 L672 269.9961 L684 269.9961 Z" clip-path="url(#clipPath2)" stroke="none"/>
      <path fill="none" d="M678 360.0034 L678 333.9961" clip-path="url(#clipPath2)"/>
      <path d="M678 322.9961 L672 334.9961 L684 334.9961 Z" clip-path="url(#clipPath2)" stroke="none"/>
      <path fill="none" d="M678 425.0034 L678 398.9961" clip-path="url(#clipPath2)"/>
      <path d="M678 387.9961 L672 399.9961 L684 399.9961 Z" clip-path="url(#clipPath2)" stroke="none"/>
      <path fill="none" d="M802.7268 535.8466 L704.7457 459.7673" clip-path="url(#clipPath2)"/>
      <path d="M696.0574 453.021 L701.8558 465.1197 L709.2154 455.6415 Z" clip-path="url(#clipPath2)" stroke="none"/>
      <path fill="none" d="M618.4219 559.4786 L666.2149 462.8318" clip-path="url(#clipPath2)"/>
      <path d="M671.0909 452.9716 L660.3933 461.0685 L671.15 466.3878 Z" clip-path="url(#clipPath2)" stroke="none"/>
      <path fill="none" d="M863.6182 600.8398 L839.6084 572.2776" clip-path="url(#clipPath2)"/>
      <path d="M832.5303 563.8574 L835.659 576.9039 L844.8447 569.1823 Z" clip-path="url(#clipPath2)" stroke="none"/>
      <path fill="none" d="M785.7543 244 L737.1158 244" clip-path="url(#clipPath2)"/>
      <path d="M726.1158 244 L738.1158 250 L738.1158 238 Z" clip-path="url(#clipPath2)" stroke="none"/>
      <path fill="none" d="M785.7543 374 L737.1158 374" clip-path="url(#clipPath2)"/>
      <path d="M726.1158 374 L738.1158 380 L738.1158 368 Z" clip-path="url(#clipPath2)" stroke="none"/>
      <path fill="none" d="M884.8721 360.0034 L884.8721 269.019" clip-path="url(#clipPath2)"/>
      <path d="M884.8721 258.019 L878.8721 270.019 L890.8721 270.019 Z" clip-path="url(#clipPath2)" stroke="none"/>
      <path fill="none" d="M570.2981 244 L618.8549 244" clip-path="url(#clipPath2)"/>
      <path d="M629.8549 244 L617.8549 238 L617.8549 250 Z" clip-path="url(#clipPath2)" stroke="none"/>
      <path fill="none" d="M570.2981 309 L618.8549 309" clip-path="url(#clipPath2)"/>
      <path d="M629.8549 309 L617.8549 303 L617.8549 315 Z" clip-path="url(#clipPath2)" stroke="none"/>
      <path fill="none" d="M497.1279 295.0034 L497.1279 268.9961" clip-path="url(#clipPath2)"/>
      <path d="M497.1279 257.9961 L491.1279 269.9961 L503.1279 269.9961 Z" clip-path="url(#clipPath2)" stroke="none"/>
      <path fill="none" d="M570.2981 374 L618.8549 374" clip-path="url(#clipPath2)"/>
      <path d="M629.8549 374 L617.8549 368 L617.8549 380 Z" clip-path="url(#clipPath2)" stroke="none"/>
      <path fill="none" d="M497.1279 360.0034 L497.1279 333.9961" clip-path="url(#clipPath2)"/>
      <path d="M497.1279 322.9961 L491.1279 334.9961 L503.1279 334.9961 Z" clip-path="url(#clipPath2)" stroke="none"/>
      <path fill="none" d="M1053.2141 229.9995 L1036.9636 224.1619 L1011.3234 216.3684 L985.6831 209.9919 L960.0428 205.0324 L934.4026 201.4899 L908.7623 199.3644 L883.1221 198.6559 L857.4818 199.3644 L831.8416 201.4899 L806.2013 205.0324 L780.561 209.9919 L754.9208 216.3684 L729.2805 224.1619 L723.3824 226.2807" clip-path="url(#clipPath2)"/>
      <path d="M713.03 229.9995 L726.3519 231.5893 L722.295 220.2959 Z" clip-path="url(#clipPath2)" stroke="none"/>
      <path fill="none" d="M1088.2441 360.0034 L1088.2441 269.019" clip-path="url(#clipPath2)"/>
      <path d="M1088.2441 258.019 L1082.2441 270.019 L1094.2441 270.019 Z" clip-path="url(#clipPath2)" stroke="none"/>
      <path fill="none" d="M1050.7102 387.9956 L1036.9636 392.634 L1011.3234 399.9545 L985.6831 405.944 L960.0428 410.6025 L934.4026 413.93 L908.7623 415.9265 L883.1221 416.592 L857.4818 415.9265 L831.8416 413.93 L806.2013 410.6025 L780.561 405.944 L754.9208 399.9545 L729.2805 392.634 L725.9566 391.5125" clip-path="url(#clipPath2)"/>
      <path d="M715.5339 387.9956 L724.9858 397.5172 L728.8224 386.1471 Z" clip-path="url(#clipPath2)" stroke="none"/>
      <path fill="none" stroke-dasharray="6,2" d="M1068.8744 258.0125 L1021.8196 292.0528" clip-path="url(#clipPath2)"/>
      <path stroke-dasharray="6,2" d="M1018.5787 294.3973 L1031.8181 292.225 L1018.5787 294.3973 L1024.7845 282.5024 Z" clip-path="url(#clipPath2)" stroke="none"/>
      <path fill="none" stroke-miterlimit="10" d="M1018.5787 294.3973 L1031.8181 292.225 L1018.5787 294.3973 L1024.7845 282.5024 Z" clip-path="url(#clipPath2)" stroke-linecap="square"/>
      <path fill="none" stroke-dasharray="6,2" d="M1109.4855 258.0125 L1161.3556 292.2301" clip-path="url(#clipPath2)"/>
      <path stroke-dasharray="6,2" d="M1164.6946 294.4327 L1157.9816 282.8165 L1164.6946 294.4327 L1151.3738 292.8333 Z" clip-path="url(#clipPath2)" stroke="none"/>
      <path fill="none" stroke-miterlimit="10" d="M1164.6946 294.4327 L1157.9816 282.8165 L1164.6946 294.4327 L1151.3738 292.8333 Z" clip-path="url(#clipPath2)" stroke-linecap="square"/>
    </g>
    <g fill="rgb(210,210,210)" text-rendering="geometricPrecision" shape-rendering="geometricPrecision" transform="matrix(1,0,0,1,-220,-163) translate(4,4)" stroke="rgb(210,210,210)">
      <rect x="960.3958" width="340.5209" height="167.1476" y="449.6796" clip-path="url(#clipPath3)" stroke="none"/>
    </g>
    <g fill="rgb(242,240,216)" text-rendering="geometricPrecision" shape-rendering="geometricPrecision" transform="matrix(1,0,0,1,-220,-163)" stroke="rgb(242,240,216)">
      <rect x="960.3958" width="340.5209" height="167.1476" y="449.6796" clip-path="url(#clipPath2)" stroke="none"/>
      <rect x="960.3958" y="449.6796" clip-path="url(#clipPath2)" fill="rgb(183,182,158)" width="340.5209" height="21.666" stroke="none"/>
    </g>
    <g font-size="15px" stroke-linecap="butt" transform="matrix(1,0,0,1,-220,-163)" text-rendering="geometricPrecision" font-family="sans-serif" shape-rendering="geometricPrecision" stroke-miterlimit="1.45">
      <text x="1246.1018" xml:space="preserve" y="466.1815" clip-path="url(#clipPath2)" stroke="none">Legend</text>
      <rect fill="none" x="960.3958" width="340.5209" height="167.1476" y="449.6796" clip-path="url(#clipPath2)"/>
    </g>
    <g fill="rgb(255,204,0)" text-rendering="geometricPrecision" shape-rendering="geometricPrecision" transform="matrix(1,0,0,1,-220,-163)" stroke="rgb(255,204,0)">
      <path d="M965.3958 476.3456 L1068.3317 476.3456 L1068.3317 491.3456 L1083.3317 491.3456 L1083.3317 504.3456 L965.3958 504.3456 Z" stroke="none" clip-path="url(#clipPath2)"/>
      <path fill="white" d="M1068.3317 476.3456 L1068.3317 491.3456 L1083.3317 491.3456 Z" clip-path="url(#clipPath2)" fill-rule="evenodd" stroke="none"/>
    </g>
    <g text-rendering="geometricPrecision" stroke-miterlimit="1.45" shape-rendering="geometricPrecision" transform="matrix(1,0,0,1,-220,-163)" stroke-linecap="butt">
      <path fill="none" d="M965.3958 476.3456 L1068.3317 476.3456 L1068.3317 491.3456 L1083.3317 491.3456 L1083.3317 504.3456 L965.3958 504.3456 Z" clip-path="url(#clipPath2)"/>
      <path fill="none" d="M1068.3317 476.3456 L1068.3317 491.3456 L1083.3317 491.3456 Z" clip-path="url(#clipPath2)" fill-rule="evenodd"/>
      <text x="987.9233" xml:space="preserve" font-size="20px" y="497.9042" clip-path="url(#clipPath2)" stroke="none">module</text>
    </g>
    <g fill="rgb(153,204,0)" text-rendering="geometricPrecision" shape-rendering="geometricPrecision" transform="matrix(1,0,0,1,-220,-163)" stroke="rgb(153,204,0)">
      <path d="M965.3958 512.1728 L1068.3317 512.1728 L1068.3317 527.1728 L1083.3317 527.1728 L1083.3317 540.1728 L965.3958 540.1728 Z" stroke="none" clip-path="url(#clipPath2)"/>
      <path fill="white" d="M1068.3317 512.1728 L1068.3317 527.1728 L1083.3317 527.1728 Z" clip-path="url(#clipPath2)" fill-rule="evenodd" stroke="none"/>
    </g>
    <g text-rendering="geometricPrecision" stroke-miterlimit="1.45" shape-rendering="geometricPrecision" transform="matrix(1,0,0,1,-220,-163)" stroke-linecap="butt">
      <path fill="none" d="M965.3958 512.1728 L1068.3317 512.1728 L1068.3317 527.1728 L1083.3317 527.1728 L1083.3317 540.1728 L965.3958 540.1728 Z" clip-path="url(#clipPath2)"/>
      <path fill="none" d="M1068.3317 512.1728 L1068.3317 527.1728 L1083.3317 527.1728 Z" clip-path="url(#clipPath2)" fill-rule="evenodd"/>
      <text x="1004.2465" xml:space="preserve" font-size="20px" y="533.7314" clip-path="url(#clipPath2)" stroke="none">root</text>
    </g>
    <g fill="yellow" text-rendering="geometricPrecision" shape-rendering="geometricPrecision" transform="matrix(1,0,0,1,-220,-163)" stroke="yellow">
      <path d="M966.5237 548 L1068.3317 548 L1068.3317 563 L1083.3317 563 L1083.3317 576 L966.5237 576 Z" stroke="none" clip-path="url(#clipPath2)"/>
      <path fill="white" d="M1068.3317 548 L1068.3317 563 L1083.3317 563 Z" clip-path="url(#clipPath2)" fill-rule="evenodd" stroke="none"/>
    </g>
    <g text-rendering="geometricPrecision" stroke-miterlimit="1.45" shape-rendering="geometricPrecision" transform="matrix(1,0,0,1,-220,-163)" stroke-linecap="butt">
      <path fill="none" d="M966.5237 548 L1068.3317 548 L1068.3317 563 L1083.3317 563 L1083.3317 576 L966.5237 576 Z" clip-path="url(#clipPath2)"/>
      <path fill="none" d="M1068.3317 548 L1068.3317 563 L1083.3317 563 Z" clip-path="url(#clipPath2)" fill-rule="evenodd"/>
      <text x="986.5927" xml:space="preserve" font-size="20px" y="569.5586" clip-path="url(#clipPath2)" stroke="none">api only</text>
    </g>
    <g fill="white" text-rendering="geometricPrecision" shape-rendering="geometricPrecision" transform="matrix(1,0,0,1,-220,-163)" stroke="white">
      <path d="M1097.6609 476.3456 L1280.9167 476.3456 L1280.9167 491.3456 L1295.9167 491.3456 L1295.9167 504.3456 L1097.6609 504.3456 Z" stroke="none" clip-path="url(#clipPath2)"/>
      <path d="M1280.9167 476.3456 L1280.9167 491.3456 L1295.9167 491.3456 Z" clip-path="url(#clipPath2)" fill-rule="evenodd" stroke="none"/>
    </g>
    <g text-rendering="geometricPrecision" stroke-miterlimit="1.45" shape-rendering="geometricPrecision" transform="matrix(1,0,0,1,-220,-163)" stroke-linecap="butt">
      <path fill="none" d="M1097.6609 476.3456 L1280.9167 476.3456 L1280.9167 491.3456 L1295.9167 491.3456 L1295.9167 504.3456 L1097.6609 504.3456 Z" clip-path="url(#clipPath2)"/>
      <path fill="none" d="M1280.9167 476.3456 L1280.9167 491.3456 L1295.9167 491.3456 Z" clip-path="url(#clipPath2)" fill-rule="evenodd"/>
      <text x="1120.4509" xml:space="preserve" font-size="20px" y="497.9042" clip-path="url(#clipPath2)" stroke="none">implementation</text>
    </g>
    <g fill="rgb(153,204,255)" text-rendering="geometricPrecision" shape-rendering="geometricPrecision" transform="matrix(1,0,0,1,-220,-163)" stroke="rgb(153,204,255)">
      <path d="M966.5237 583.8272 L1068.3317 583.8272 L1068.3317 598.8272 L1083.3317 598.8272 L1083.3317 611.8272 L966.5237 611.8272 Z" stroke="none" clip-path="url(#clipPath2)"/>
      <path fill="white" d="M1068.3317 583.8272 L1068.3317 598.8272 L1083.3317 598.8272 Z" clip-path="url(#clipPath2)" fill-rule="evenodd" stroke="none"/>
    </g>
    <g text-rendering="geometricPrecision" stroke-miterlimit="1.45" stroke-dasharray="6,2" shape-rendering="geometricPrecision" transform="matrix(1,0,0,1,-220,-163)" stroke-linecap="butt">
      <path fill="none" d="M966.5237 583.8272 L1068.3317 583.8272 L1068.3317 598.8272 L1083.3317 598.8272 L1083.3317 611.8272 L966.5237 611.8272 Z" clip-path="url(#clipPath2)"/>
      <path fill="none" d="M1068.3317 583.8272 L1068.3317 598.8272 L1083.3317 598.8272 Z" clip-path="url(#clipPath2)" fill-rule="evenodd"/>
      <text x="997.3447" font-size="20px" y="605.3858" clip-path="url(#clipPath2)" stroke-dasharray="none" stroke="none" xml:space="preserve">utility</text>
    </g>
    <g fill="rgb(255,204,0)" text-rendering="geometricPrecision" shape-rendering="geometricPrecision" transform="matrix(1,0,0,1,-220,-163)" stroke="rgb(255,204,0)">
      <path d="M424 425 L553 425 L553 440 L568 440 L568 453 L424 453 Z" stroke="none" clip-path="url(#clipPath2)"/>
      <path fill="white" d="M553 425 L553 440 L568 440 Z" clip-path="url(#clipPath2)" fill-rule="evenodd" stroke="none"/>
    </g>
    <g text-rendering="geometricPrecision" stroke-miterlimit="1.45" shape-rendering="geometricPrecision" transform="matrix(1,0,0,1,-220,-163)" stroke-linecap="butt">
      <path fill="none" d="M424 425 L553 425 L553 440 L568 440 L568 453 L424 453 Z" clip-path="url(#clipPath2)"/>
      <path fill="none" d="M553 425 L553 440 L568 440 Z" clip-path="url(#clipPath2)" fill-rule="evenodd"/>
      <text x="451.0537" xml:space="preserve" font-size="20px" y="446.5586" clip-path="url(#clipPath2)" stroke="none">dsl-solve</text>
    </g>
    <g fill="rgb(255,204,0)" text-rendering="geometricPrecision" shape-rendering="geometricPrecision" transform="matrix(1,0,0,1,-220,-163)" stroke="rgb(255,204,0)">
      <path d="M717.7441 600.8364 L775.372 600.8364 L775.372 615.8364 L790.372 615.8364 L790.372 628.8364 L717.7441 628.8364 Z" stroke="none" clip-path="url(#clipPath2)"/>
      <path fill="white" d="M775.372 600.8364 L775.372 615.8364 L790.372 615.8364 Z" clip-path="url(#clipPath2)" fill-rule="evenodd" stroke="none"/>
    </g>
    <g text-rendering="geometricPrecision" stroke-miterlimit="1.45" shape-rendering="geometricPrecision" transform="matrix(1,0,0,1,-220,-163)" stroke-linecap="butt">
      <path fill="none" d="M717.7441 600.8364 L775.372 600.8364 L775.372 615.8364 L790.372 615.8364 L790.372 628.8364 L717.7441 628.8364 Z" clip-path="url(#clipPath2)"/>
      <path fill="none" d="M775.372 600.8364 L775.372 615.8364 L790.372 615.8364 Z" clip-path="url(#clipPath2)" fill-rule="evenodd"/>
      <text x="739.3022" xml:space="preserve" font-size="20px" y="622.395" clip-path="url(#clipPath2)" stroke="none">ide</text>
    </g>
    <g fill="rgb(255,204,0)" text-rendering="geometricPrecision" shape-rendering="geometricPrecision" transform="matrix(1,0,0,1,-220,-163)" stroke="rgb(255,204,0)">
      <path d="M785.7441 425 L878.744 425 L878.744 440 L893.744 440 L893.744 453 L785.7441 453 Z" stroke="none" clip-path="url(#clipPath2)"/>
      <path fill="white" d="M878.744 425 L878.744 440 L893.744 440 Z" clip-path="url(#clipPath2)" fill-rule="evenodd" stroke="none"/>
    </g>
    <g text-rendering="geometricPrecision" stroke-miterlimit="1.45" shape-rendering="geometricPrecision" transform="matrix(1,0,0,1,-220,-163)" stroke-linecap="butt">
      <path fill="none" d="M785.7441 425 L878.744 425 L878.744 440 L893.744 440 L893.744 453 L785.7441 453 Z" clip-path="url(#clipPath2)"/>
      <path fill="none" d="M878.744 425 L878.744 440 L893.744 440 Z" clip-path="url(#clipPath2)" fill-rule="evenodd"/>
      <text x="803.3036" xml:space="preserve" font-size="20px" y="446.5586" clip-path="url(#clipPath2)" stroke="none">oop-lib</text>
    </g>
    <g fill="rgb(255,204,0)" text-rendering="geometricPrecision" shape-rendering="geometricPrecision" transform="matrix(1,0,0,1,-220,-163)" stroke="rgb(255,204,0)">
      <path d="M785.7441 476 L878.744 476 L878.744 491 L893.744 491 L893.744 504 L785.7441 504 Z" stroke="none" clip-path="url(#clipPath2)"/>
      <path fill="white" d="M878.744 476 L878.744 491 L893.744 491 Z" clip-path="url(#clipPath2)" fill-rule="evenodd" stroke="none"/>
    </g>
    <g text-rendering="geometricPrecision" stroke-miterlimit="1.45" shape-rendering="geometricPrecision" transform="matrix(1,0,0,1,-220,-163)" stroke-linecap="butt">
      <path fill="none" d="M785.7441 476 L878.744 476 L878.744 491 L893.744 491 L893.744 504 L785.7441 504 Z" clip-path="url(#clipPath2)"/>
      <path fill="none" d="M878.744 476 L878.744 491 L893.744 491 Z" clip-path="url(#clipPath2)" fill-rule="evenodd"/>
      <text x="812.8495" xml:space="preserve" font-size="20px" y="497.5586" clip-path="url(#clipPath2)" stroke="none">io-lib</text>
    </g>
    <g fill="yellow" text-rendering="geometricPrecision" shape-rendering="geometricPrecision" transform="matrix(1,0,0,1,-220,-163)" stroke="yellow">
      <path d="M242.7441 498.5 L366 498.5 L366 513.5 L381 513.5 L381 526.5 L242.7441 526.5 Z" stroke="none" clip-path="url(#clipPath2)"/>
      <path fill="white" d="M366 498.5 L366 513.5 L381 513.5 Z" clip-path="url(#clipPath2)" fill-rule="evenodd" stroke="none"/>
    </g>
    <g text-rendering="geometricPrecision" stroke-miterlimit="1.45" shape-rendering="geometricPrecision" transform="matrix(1,0,0,1,-220,-163)" stroke-linecap="butt">
      <path fill="none" d="M242.7441 498.5 L366 498.5 L366 513.5 L381 513.5 L381 526.5 L242.7441 526.5 Z" clip-path="url(#clipPath2)"/>
      <path fill="none" d="M366 498.5 L366 513.5 L381 513.5 Z" clip-path="url(#clipPath2)" fill-rule="evenodd"/>
      <text x="265.7295" xml:space="preserve" font-size="20px" y="520.0586" clip-path="url(#clipPath2)" stroke="none">solve-plp</text>
    </g>
    <g fill="rgb(255,204,0)" text-rendering="geometricPrecision" shape-rendering="geometricPrecision" transform="matrix(1,0,0,1,-220,-163)" stroke="rgb(255,204,0)">
      <path d="M222.2441 572 L386.5 572 L386.5 587 L401.5 587 L401.5 600 L222.2441 600 Z" stroke="none" clip-path="url(#clipPath2)"/>
      <path fill="white" d="M386.5 572 L386.5 587 L401.5 587 Z" clip-path="url(#clipPath2)" fill-rule="evenodd" stroke="none"/>
    </g>
    <g text-rendering="geometricPrecision" stroke-miterlimit="1.45" shape-rendering="geometricPrecision" transform="matrix(1,0,0,1,-220,-163)" stroke-linecap="butt">
      <path fill="none" d="M222.2441 572 L386.5 572 L386.5 587 L401.5 587 L401.5 600 L222.2441 600 Z" clip-path="url(#clipPath2)"/>
      <path fill="none" d="M386.5 572 L386.5 587 L401.5 587 Z" clip-path="url(#clipPath2)" fill-rule="evenodd"/>
      <text x="243.1172" xml:space="preserve" font-size="20px" y="593.5586" clip-path="url(#clipPath2)" stroke="none">solve-problog</text>
    </g>
    <g fill="rgb(153,204,255)" text-rendering="geometricPrecision" shape-rendering="geometricPrecision" transform="matrix(1,0,0,1,-220,-163)" stroke="rgb(153,204,255)">
      <path d="M635.3721 165 L705.6279 165 L705.6279 180 L720.6279 180 L720.6279 193 L635.3721 193 Z" stroke="none" clip-path="url(#clipPath2)"/>
      <path fill="white" d="M705.6279 165 L705.6279 180 L720.6279 180 Z" clip-path="url(#clipPath2)" fill-rule="evenodd" stroke="none"/>
    </g>
    <g text-rendering="geometricPrecision" stroke-miterlimit="1.45" stroke-dasharray="6,2" shape-rendering="geometricPrecision" transform="matrix(1,0,0,1,-220,-163)" stroke-linecap="butt">
      <path fill="none" d="M635.3721 165 L705.6279 165 L705.6279 180 L720.6279 180 L720.6279 193 L635.3721 193 Z" clip-path="url(#clipPath2)"/>
      <path fill="none" d="M705.6279 165 L705.6279 180 L720.6279 180 Z" clip-path="url(#clipPath2)" fill-rule="evenodd"/>
      <text x="657.1748" font-size="20px" y="186.5586" clip-path="url(#clipPath2)" stroke-dasharray="none" stroke="none" xml:space="preserve">utils</text>
    </g>
    <g fill="rgb(153,204,255)" text-rendering="geometricPrecision" shape-rendering="geometricPrecision" transform="matrix(1,0,0,1,-220,-163)" stroke="rgb(153,204,255)">
      <path d="M269.2441 425 L339.5 425 L339.5 440 L354.5 440 L354.5 453 L269.2441 453 Z" stroke="none" clip-path="url(#clipPath2)"/>
      <path fill="white" d="M339.5 425 L339.5 440 L354.5 440 Z" clip-path="url(#clipPath2)" fill-rule="evenodd" stroke="none"/>
    </g>
    <g text-rendering="geometricPrecision" stroke-miterlimit="1.45" stroke-dasharray="6,2" shape-rendering="geometricPrecision" transform="matrix(1,0,0,1,-220,-163)" stroke-linecap="butt">
      <path fill="none" d="M269.2441 425 L339.5 425 L339.5 440 L354.5 440 L354.5 453 L269.2441 453 Z" clip-path="url(#clipPath2)"/>
      <path fill="none" d="M339.5 425 L339.5 440 L354.5 440 Z" clip-path="url(#clipPath2)" fill-rule="evenodd"/>
      <text x="292.9902" font-size="20px" y="446.5586" clip-path="url(#clipPath2)" stroke-dasharray="none" stroke="none" xml:space="preserve">bdd</text>
    </g>
    <g fill="rgb(255,204,0)" text-rendering="geometricPrecision" shape-rendering="geometricPrecision" transform="matrix(1,0,0,1,-220,-163)" stroke="rgb(255,204,0)">
      <path d="M506.8603 606.8272 L609.7961 606.8272 L609.7961 621.8272 L624.7961 621.8272 L624.7961 634.8272 L506.8603 634.8272 Z" stroke="none" clip-path="url(#clipPath2)"/>
      <path fill="white" d="M609.7961 606.8272 L609.7961 621.8272 L624.7961 621.8272 Z" clip-path="url(#clipPath2)" fill-rule="evenodd" stroke="none"/>
    </g>
    <g text-rendering="geometricPrecision" stroke-miterlimit="1.45" shape-rendering="geometricPrecision" transform="matrix(1,0,0,1,-220,-163)" stroke-linecap="butt">
      <path fill="none" d="M506.8603 606.8272 L609.7961 606.8272 L609.7961 621.8272 L624.7961 621.8272 L624.7961 634.8272 L506.8603 634.8272 Z" clip-path="url(#clipPath2)"/>
      <path fill="none" d="M609.7961 606.8272 L609.7961 621.8272 L624.7961 621.8272 Z" clip-path="url(#clipPath2)" fill-rule="evenodd"/>
      <text x="529.8077" xml:space="preserve" font-size="20px" y="628.3858" clip-path="url(#clipPath2)" stroke="none">ide-plp</text>
    </g>
    <g fill="rgb(255,204,0)" text-rendering="geometricPrecision" shape-rendering="geometricPrecision" transform="matrix(1,0,0,1,-220,-163)" stroke="rgb(255,204,0)">
      <path d="M405.7205 512.1728 L594.9764 512.1728 L594.9764 527.1728 L609.9764 527.1728 L609.9764 540.1728 L405.7205 540.1728 Z" stroke="none" clip-path="url(#clipPath2)"/>
      <path fill="white" d="M594.9764 512.1728 L594.9764 527.1728 L609.9764 527.1728 Z" clip-path="url(#clipPath2)" fill-rule="evenodd" stroke="none"/>
    </g>
    <g text-rendering="geometricPrecision" stroke-miterlimit="1.45" shape-rendering="geometricPrecision" transform="matrix(1,0,0,1,-220,-163)" stroke-linecap="butt">
      <path fill="none" d="M405.7205 512.1728 L594.9764 512.1728 L594.9764 527.1728 L609.9764 527.1728 L609.9764 540.1728 L405.7205 540.1728 Z" clip-path="url(#clipPath2)"/>
      <path fill="none" d="M594.9764 512.1728 L594.9764 527.1728 L609.9764 527.1728 Z" clip-path="url(#clipPath2)" fill-rule="evenodd"/>
      <text x="424.6844" xml:space="preserve" font-size="20px" y="533.7314" clip-path="url(#clipPath2)" stroke="none">solve-concurrent</text>
      <path fill="none" d="M1113.3317 533 L1254.9167 533" clip-path="url(#clipPath2)"/>
      <path d="M1265.9167 533 L1253.9167 527 L1253.9167 539 Z" clip-path="url(#clipPath2)" stroke="none"/>
      <text x="1140.7682" xml:space="preserve" y="524.9415" clip-path="url(#clipPath2)" font-family="sans-serif" stroke="none">depends on</text>
      <path fill="none" stroke-dasharray="6,2" d="M1113.3317 563 L1260.9167 563" clip-path="url(#clipPath2)"/>
      <path stroke-dasharray="6,2" d="M1264.9167 563 L1252.9167 557 L1264.9167 563 L1252.9167 569 Z" clip-path="url(#clipPath2)" stroke="none"/>
      <path fill="none" stroke-miterlimit="10" d="M1264.9167 563 L1252.9167 557 L1264.9167 563 L1252.9167 569 Z" clip-path="url(#clipPath2)" stroke-linecap="square"/>
      <text x="1176.4406" xml:space="preserve" y="554.9415" clip-path="url(#clipPath2)" font-family="sans-serif" stroke="none">uses</text>
      <path fill="none" d="M568.0269 439 L618.8599 439" clip-path="url(#clipPath2)"/>
      <path d="M629.8599 439 L617.8599 433 L617.8599 445 Z" clip-path="url(#clipPath2)" stroke="none"/>
      <path fill="none" d="M496.2429 425.0034 L496.6942 398.9944" clip-path="url(#clipPath2)"/>
      <path d="M496.8851 387.996 L490.6778 399.8901 L502.676 400.0983 Z" clip-path="url(#clipPath2)" stroke="none"/>
      <path fill="none" d="M768.4177 600.8398 L798.4823 571.5353" clip-path="url(#clipPath2)"/>
      <path d="M806.3594 563.8574 L793.5782 567.9367 L801.9542 576.5299 Z" clip-path="url(#clipPath2)" stroke="none"/>
      <path fill="none" d="M785.7635 439 L737.12 439" clip-path="url(#clipPath2)"/>
      <path d="M726.12 439 L738.12 445 L738.12 433 Z" clip-path="url(#clipPath2)" stroke="none"/>
      <path fill="none" d="M795.3198 475.9924 L732.9154 456.3155" clip-path="url(#clipPath2)"/>
      <path d="M722.4246 453.0076 L732.0648 462.3385 L735.6734 450.894 Z" clip-path="url(#clipPath2)" stroke="none"/>
      <path fill="none" d="M381.0127 498.6201 L619.107 450.8228" clip-path="url(#clipPath2)"/>
      <path d="M629.8918 448.6577 L616.9456 445.1369 L619.3075 456.9022 Z" clip-path="url(#clipPath2)" stroke="none"/>
      <path fill="none" d="M311.8721 571.9675 L311.8721 537.5248" clip-path="url(#clipPath2)"/>
      <path d="M311.8721 526.5248 L305.8721 538.5248 L317.8721 538.5248 Z" clip-path="url(#clipPath2)" stroke="none"/>
      <path fill="none" d="M678 230.0034 L678 203.996" clip-path="url(#clipPath2)"/>
      <path d="M678 192.996 L672 204.996 L684 204.996 Z" clip-path="url(#clipPath2)" stroke="none"/>
      <path fill="none" d="M311.8721 498.4675 L311.8721 464.0248" clip-path="url(#clipPath2)"/>
      <path d="M311.8721 453.0248 L305.8721 465.0248 L317.8721 465.0248 Z" clip-path="url(#clipPath2)" stroke="none"/>
      <path fill="none" d="M506.8342 612.7369 L412.3975 599.7859" clip-path="url(#clipPath2)"/>
      <path d="M401.4995 598.2914 L412.573 605.8661 L414.2034 593.9774 Z" clip-path="url(#clipPath2)" stroke="none"/>
      <path fill="none" d="M624.7879 618.9507 L706.7379 616.3425" clip-path="url(#clipPath2)"/>
      <path d="M717.7324 615.9926 L705.5475 610.3773 L705.9293 622.3712 Z" clip-path="url(#clipPath2)" stroke="none"/>
      <path fill="none" d="M535.1408 512.1902 L640.9008 458.0068" clip-path="url(#clipPath2)"/>
      <path d="M650.6907 452.9912 L637.275 453.1228 L642.7466 463.8028 Z" clip-path="url(#clipPath2)" stroke="none"/>
    </g>
  </g>
</svg>
