<?xml version="1.0" encoding="UTF-8"?><svg xmlns="http://www.w3.org/2000/svg" xmlns:xlink="http://www.w3.org/1999/xlink" fill-opacity="1" color-rendering="auto" color-interpolation="auto" text-rendering="auto" stroke="black" stroke-linecap="square" width="866" stroke-miterlimit="10" shape-rendering="auto" stroke-opacity="1" fill="black" stroke-dasharray="none" font-weight="normal" stroke-width="1" height="419" font-family="'Dialog'" font-style="normal" stroke-linejoin="miter" font-size="12px" stroke-dashoffset="0" image-rendering="auto">
  <!--Generated by ySVG 2.5-->
  <defs id="genericDefs"/>
  <g>
    <defs id="defs1">
      <clipPath clipPathUnits="userSpaceOnUse" id="clipPath1">
        <path d="M0 0 L866 0 L866 419 L0 419 L0 0 Z"/>
      </clipPath>
      <clipPath clipPathUnits="userSpaceOnUse" id="clipPath2">
        <path d="M409 183 L1275 183 L1275 602 L409 602 L409 183 Z"/>
      </clipPath>
      <clipPath clipPathUnits="userSpaceOnUse" id="clipPath3">
        <path d="M405 179 L1271 179 L1271 598 L405 598 L405 179 Z"/>
      </clipPath>
    </defs>
    <g fill="rgb(153,204,0)" text-rendering="geometricPrecision" shape-rendering="geometricPrecision" transform="matrix(1,0,0,1,-409,-183)" stroke="rgb(153,204,0)">
      <path d="M629.8721 230 L711.1279 230 L711.1279 245 L726.1279 245 L726.1279 258 L629.8721 258 Z" stroke="none" clip-path="url(#clipPath2)"/>
    </g>
    <g fill="white" text-rendering="geometricPrecision" shape-rendering="geometricPrecision" transform="matrix(1,0,0,1,-409,-183)" stroke="white">
      <path d="M711.1279 230 L711.1279 245 L726.1279 245 Z" fill-rule="evenodd" clip-path="url(#clipPath2)" stroke="none"/>
    </g>
    <g text-rendering="geometricPrecision" stroke-miterlimit="1.45" shape-rendering="geometricPrecision" transform="matrix(1,0,0,1,-409,-183)" stroke-linecap="butt">
      <path fill="none" d="M629.8721 230 L711.1279 230 L711.1279 245 L726.1279 245 L726.1279 258 L629.8721 258 Z" clip-path="url(#clipPath2)"/>
      <path fill="none" d="M711.1279 230 L711.1279 245 L726.1279 245 Z" clip-path="url(#clipPath2)" fill-rule="evenodd"/>
      <text x="658" font-size="20px" y="250.6" clip-path="url(#clipPath2)" font-family="'Ubuntu Mono'" stroke="none" xml:space="preserve">core</text>
    </g>
    <g fill="rgb(255,204,0)" text-rendering="geometricPrecision" shape-rendering="geometricPrecision" transform="matrix(1,0,0,1,-409,-183)" stroke="rgb(255,204,0)">
      <path d="M629.8721 295 L711.1279 295 L711.1279 310 L726.1279 310 L726.1279 323 L629.8721 323 Z" stroke="none" clip-path="url(#clipPath2)"/>
      <path fill="white" d="M711.1279 295 L711.1279 310 L726.1279 310 Z" clip-path="url(#clipPath2)" fill-rule="evenodd" stroke="none"/>
    </g>
    <g text-rendering="geometricPrecision" stroke-miterlimit="1.45" shape-rendering="geometricPrecision" transform="matrix(1,0,0,1,-409,-183)" stroke-linecap="butt">
      <path fill="none" d="M629.8721 295 L711.1279 295 L711.1279 310 L726.1279 310 L726.1279 323 L629.8721 323 Z" clip-path="url(#clipPath2)"/>
      <path fill="none" d="M711.1279 295 L711.1279 310 L726.1279 310 Z" clip-path="url(#clipPath2)" fill-rule="evenodd"/>
      <text x="653.0001" font-size="20px" y="315.6" clip-path="url(#clipPath2)" font-family="'Ubuntu Mono'" stroke="none" xml:space="preserve">unify</text>
    </g>
    <g fill="rgb(255,204,0)" text-rendering="geometricPrecision" shape-rendering="geometricPrecision" transform="matrix(1,0,0,1,-409,-183)" stroke="rgb(255,204,0)">
      <path d="M629.8721 360 L711.1279 360 L711.1279 375 L726.1279 375 L726.1279 388 L629.8721 388 Z" stroke="none" clip-path="url(#clipPath2)"/>
      <path fill="white" d="M711.1279 360 L711.1279 375 L726.1279 375 Z" clip-path="url(#clipPath2)" fill-rule="evenodd" stroke="none"/>
    </g>
    <g text-rendering="geometricPrecision" stroke-miterlimit="1.45" shape-rendering="geometricPrecision" transform="matrix(1,0,0,1,-409,-183)" stroke-linecap="butt">
      <path fill="none" d="M629.8721 360 L711.1279 360 L711.1279 375 L726.1279 375 L726.1279 388 L629.8721 388 Z" clip-path="url(#clipPath2)"/>
      <path fill="none" d="M711.1279 360 L711.1279 375 L726.1279 375 Z" clip-path="url(#clipPath2)" fill-rule="evenodd"/>
      <text x="648.0001" font-size="20px" y="380.6" clip-path="url(#clipPath2)" font-family="'Ubuntu Mono'" stroke="none" xml:space="preserve">theory</text>
    </g>
    <g fill="yellow" text-rendering="geometricPrecision" shape-rendering="geometricPrecision" transform="matrix(1,0,0,1,-409,-183)" stroke="yellow">
      <path d="M629.8721 425 L711.1279 425 L711.1279 440 L726.1279 440 L726.1279 453 L629.8721 453 Z" stroke="none" clip-path="url(#clipPath2)"/>
      <path fill="white" d="M711.1279 425 L711.1279 440 L726.1279 440 Z" clip-path="url(#clipPath2)" fill-rule="evenodd" stroke="none"/>
    </g>
    <g text-rendering="geometricPrecision" stroke-miterlimit="1.45" shape-rendering="geometricPrecision" transform="matrix(1,0,0,1,-409,-183)" stroke-linecap="butt">
      <path fill="none" d="M629.8721 425 L711.1279 425 L711.1279 440 L726.1279 440 L726.1279 453 L629.8721 453 Z" clip-path="url(#clipPath2)"/>
      <path fill="none" d="M711.1279 425 L711.1279 440 L726.1279 440 Z" clip-path="url(#clipPath2)" fill-rule="evenodd"/>
      <text x="653.0001" font-size="20px" y="445.6" clip-path="url(#clipPath2)" font-family="'Ubuntu Mono'" stroke="none" xml:space="preserve">solve</text>
    </g>
    <g fill="rgb(255,204,0)" text-rendering="geometricPrecision" shape-rendering="geometricPrecision" transform="matrix(1,0,0,1,-409,-183)" stroke="rgb(255,204,0)">
      <path d="M453.3721 490 L617.6279 490 L617.6279 505 L632.6279 505 L632.6279 518 L453.3721 518 Z" stroke="none" clip-path="url(#clipPath2)"/>
      <path fill="white" d="M617.6279 490 L617.6279 505 L632.6279 505 Z" clip-path="url(#clipPath2)" fill-rule="evenodd" stroke="none"/>
    </g>
    <g text-rendering="geometricPrecision" stroke-miterlimit="1.45" shape-rendering="geometricPrecision" transform="matrix(1,0,0,1,-409,-183)" stroke-linecap="butt">
      <path fill="none" d="M453.3721 490 L617.6279 490 L617.6279 505 L632.6279 505 L632.6279 518 L453.3721 518 Z" clip-path="url(#clipPath2)"/>
      <path fill="none" d="M617.6279 490 L617.6279 505 L632.6279 505 Z" clip-path="url(#clipPath2)" fill-rule="evenodd"/>
      <text x="478.0001" font-size="20px" y="510.6" clip-path="url(#clipPath2)" font-family="'Ubuntu Mono'" stroke="none" xml:space="preserve">solve-classic</text>
    </g>
    <g fill="rgb(255,204,0)" text-rendering="geometricPrecision" shape-rendering="geometricPrecision" transform="matrix(1,0,0,1,-409,-183)" stroke="rgb(255,204,0)">
      <path d="M662.6279 490 L826.8838 490 L826.8838 505 L841.8838 505 L841.8838 518 L662.6279 518 Z" stroke="none" clip-path="url(#clipPath2)"/>
      <path fill="white" d="M826.8838 490 L826.8838 505 L841.8838 505 Z" clip-path="url(#clipPath2)" fill-rule="evenodd" stroke="none"/>
    </g>
    <g text-rendering="geometricPrecision" stroke-miterlimit="1.45" shape-rendering="geometricPrecision" transform="matrix(1,0,0,1,-409,-183)" stroke-linecap="butt">
      <path fill="none" d="M662.6279 490 L826.8838 490 L826.8838 505 L841.8838 505 L841.8838 518 L662.6279 518 Z" clip-path="url(#clipPath2)"/>
      <path fill="none" d="M826.8838 490 L826.8838 505 L841.8838 505 Z" clip-path="url(#clipPath2)" fill-rule="evenodd"/>
      <text x="687.256" font-size="20px" y="510.6" clip-path="url(#clipPath2)" font-family="'Ubuntu Mono'" stroke="none" xml:space="preserve">solve-streams</text>
    </g>
    <g fill="rgb(255,204,0)" text-rendering="geometricPrecision" shape-rendering="geometricPrecision" transform="matrix(1,0,0,1,-409,-183)" stroke="rgb(255,204,0)">
      <path d="M453.3721 555 L523.6279 555 L523.6279 570 L538.6279 570 L538.6279 583 L453.3721 583 Z" stroke="none" clip-path="url(#clipPath2)"/>
      <path fill="white" d="M523.6279 555 L523.6279 570 L538.6279 570 Z" clip-path="url(#clipPath2)" fill-rule="evenodd" stroke="none"/>
    </g>
    <g text-rendering="geometricPrecision" stroke-miterlimit="1.45" shape-rendering="geometricPrecision" transform="matrix(1,0,0,1,-409,-183)" stroke-linecap="butt">
      <path fill="none" d="M453.3721 555 L523.6279 555 L523.6279 570 L538.6279 570 L538.6279 583 L453.3721 583 Z" clip-path="url(#clipPath2)"/>
      <path fill="none" d="M523.6279 555 L523.6279 570 L538.6279 570 Z" clip-path="url(#clipPath2)" fill-rule="evenodd"/>
      <text x="476" font-size="20px" y="575.6" clip-path="url(#clipPath2)" font-family="'Ubuntu Mono'" stroke="none" xml:space="preserve">repl</text>
    </g>
    <g fill="rgb(255,204,0)" text-rendering="geometricPrecision" shape-rendering="geometricPrecision" transform="matrix(1,0,0,1,-409,-183)" stroke="rgb(255,204,0)">
      <path d="M785.7441 230 L969 230 L969 245 L984 245 L984 258 L785.7441 258 Z" stroke="none" clip-path="url(#clipPath2)"/>
      <path fill="white" d="M969 230 L969 245 L984 245 Z" clip-path="url(#clipPath2)" fill-rule="evenodd" stroke="none"/>
    </g>
    <g text-rendering="geometricPrecision" stroke-miterlimit="1.45" shape-rendering="geometricPrecision" transform="matrix(1,0,0,1,-409,-183)" stroke-linecap="butt">
      <path fill="none" d="M785.7441 230 L969 230 L969 245 L984 245 L984 258 L785.7441 258 Z" clip-path="url(#clipPath2)"/>
      <path fill="none" d="M969 230 L969 245 L984 245 Z" clip-path="url(#clipPath2)" fill-rule="evenodd"/>
      <text x="814.8722" font-size="20px" y="250.6" clip-path="url(#clipPath2)" font-family="'Ubuntu Mono'" stroke="none" xml:space="preserve">serialize-core</text>
    </g>
    <g fill="rgb(255,204,0)" text-rendering="geometricPrecision" shape-rendering="geometricPrecision" transform="matrix(1,0,0,1,-409,-183)" stroke="rgb(255,204,0)">
      <path d="M785.7441 360 L969 360 L969 375 L984 375 L984 388 L785.7441 388 Z" stroke="none" clip-path="url(#clipPath2)"/>
      <path fill="white" d="M969 360 L969 375 L984 375 Z" clip-path="url(#clipPath2)" fill-rule="evenodd" stroke="none"/>
    </g>
    <g text-rendering="geometricPrecision" stroke-miterlimit="1.45" shape-rendering="geometricPrecision" transform="matrix(1,0,0,1,-409,-183)" stroke-linecap="butt">
      <path fill="none" d="M785.7441 360 L969 360 L969 375 L984 375 L984 388 L785.7441 388 Z" clip-path="url(#clipPath2)"/>
      <path fill="none" d="M969 360 L969 375 L984 375 Z" clip-path="url(#clipPath2)" fill-rule="evenodd"/>
      <text x="804.8722" font-size="20px" y="380.6" clip-path="url(#clipPath2)" font-family="'Ubuntu Mono'" stroke="none" xml:space="preserve">serialize-theory</text>
    </g>
    <g fill="rgb(255,204,0)" text-rendering="geometricPrecision" shape-rendering="geometricPrecision" transform="matrix(1,0,0,1,-409,-183)" stroke="rgb(255,204,0)">
      <path d="M424 230 L555.2559 230 L555.2559 245 L570.2559 245 L570.2559 258 L424 258 Z" stroke="none" clip-path="url(#clipPath2)"/>
      <path fill="white" d="M555.2559 230 L555.2559 245 L570.2559 245 Z" clip-path="url(#clipPath2)" fill-rule="evenodd" stroke="none"/>
    </g>
    <g text-rendering="geometricPrecision" stroke-miterlimit="1.45" shape-rendering="geometricPrecision" transform="matrix(1,0,0,1,-409,-183)" stroke-linecap="butt">
      <path fill="none" d="M424 230 L555.2559 230 L555.2559 245 L570.2559 245 L570.2559 258 L424 258 Z" clip-path="url(#clipPath2)"/>
      <path fill="none" d="M555.2559 230 L555.2559 245 L570.2559 245 Z" clip-path="url(#clipPath2)" fill-rule="evenodd"/>
      <text x="457.128" font-size="20px" y="250.6" clip-path="url(#clipPath2)" font-family="'Ubuntu Mono'" stroke="none" xml:space="preserve">dsl-core</text>
    </g>
    <g fill="rgb(255,204,0)" text-rendering="geometricPrecision" shape-rendering="geometricPrecision" transform="matrix(1,0,0,1,-409,-183)" stroke="rgb(255,204,0)">
      <path d="M424 295 L555.2559 295 L555.2559 310 L570.2559 310 L570.2559 323 L424 323 Z" stroke="none" clip-path="url(#clipPath2)"/>
      <path fill="white" d="M555.2559 295 L555.2559 310 L570.2559 310 Z" clip-path="url(#clipPath2)" fill-rule="evenodd" stroke="none"/>
    </g>
    <g text-rendering="geometricPrecision" stroke-miterlimit="1.45" shape-rendering="geometricPrecision" transform="matrix(1,0,0,1,-409,-183)" stroke-linecap="butt">
      <path fill="none" d="M424 295 L555.2559 295 L555.2559 310 L570.2559 310 L570.2559 323 L424 323 Z" clip-path="url(#clipPath2)"/>
      <path fill="none" d="M555.2559 295 L555.2559 310 L570.2559 310 Z" clip-path="url(#clipPath2)" fill-rule="evenodd"/>
      <text x="452.128" font-size="20px" y="315.6" clip-path="url(#clipPath2)" font-family="'Ubuntu Mono'" stroke="none" xml:space="preserve">dsl-unify</text>
    </g>
    <g fill="rgb(255,204,0)" text-rendering="geometricPrecision" shape-rendering="geometricPrecision" transform="matrix(1,0,0,1,-409,-183)" stroke="rgb(255,204,0)">
      <path d="M424 360 L555.2559 360 L555.2559 375 L570.2559 375 L570.2559 388 L424 388 Z" stroke="none" clip-path="url(#clipPath2)"/>
      <path fill="white" d="M555.2559 360 L555.2559 375 L570.2559 375 Z" clip-path="url(#clipPath2)" fill-rule="evenodd" stroke="none"/>
    </g>
    <g text-rendering="geometricPrecision" stroke-miterlimit="1.45" shape-rendering="geometricPrecision" transform="matrix(1,0,0,1,-409,-183)" stroke-linecap="butt">
      <path fill="none" d="M424 360 L555.2559 360 L555.2559 375 L570.2559 375 L570.2559 388 L424 388 Z" clip-path="url(#clipPath2)"/>
      <path fill="none" d="M555.2559 360 L555.2559 375 L570.2559 375 Z" clip-path="url(#clipPath2)" fill-rule="evenodd"/>
      <text x="447.128" font-size="20px" y="380.6" clip-path="url(#clipPath2)" font-family="'Ubuntu Mono'" stroke="none" xml:space="preserve">dsl-theory</text>
    </g>
    <g fill="rgb(255,204,0)" text-rendering="geometricPrecision" shape-rendering="geometricPrecision" transform="matrix(1,0,0,1,-409,-183)" stroke="rgb(255,204,0)">
      <path d="M1002.6162 230 L1158.8721 230 L1158.8721 245 L1173.8721 245 L1173.8721 258 L1002.6162 258 Z" stroke="none" clip-path="url(#clipPath2)"/>
      <path fill="white" d="M1158.8721 230 L1158.8721 245 L1173.8721 245 Z" clip-path="url(#clipPath2)" fill-rule="evenodd" stroke="none"/>
    </g>
    <g text-rendering="geometricPrecision" stroke-miterlimit="1.45" shape-rendering="geometricPrecision" transform="matrix(1,0,0,1,-409,-183)" stroke-linecap="butt">
      <path fill="none" d="M1002.6162 230 L1158.8721 230 L1158.8721 245 L1173.8721 245 L1173.8721 258 L1002.6162 258 Z" clip-path="url(#clipPath2)"/>
      <path fill="none" d="M1158.8721 230 L1158.8721 245 L1173.8721 245 Z" clip-path="url(#clipPath2)" fill-rule="evenodd"/>
      <text x="1033.2443" font-size="20px" y="250.6" clip-path="url(#clipPath2)" font-family="'Ubuntu Mono'" stroke="none" xml:space="preserve">parser-core</text>
    </g>
    <g fill="rgb(255,204,0)" text-rendering="geometricPrecision" shape-rendering="geometricPrecision" transform="matrix(1,0,0,1,-409,-183)" stroke="rgb(255,204,0)">
      <path d="M1002.6162 360 L1158.8721 360 L1158.8721 375 L1173.8721 375 L1173.8721 388 L1002.6162 388 Z" stroke="none" clip-path="url(#clipPath2)"/>
      <path fill="white" d="M1158.8721 360 L1158.8721 375 L1173.8721 375 Z" clip-path="url(#clipPath2)" fill-rule="evenodd" stroke="none"/>
    </g>
    <g text-rendering="geometricPrecision" stroke-miterlimit="1.45" shape-rendering="geometricPrecision" transform="matrix(1,0,0,1,-409,-183)" stroke-linecap="butt">
      <path fill="none" d="M1002.6162 360 L1158.8721 360 L1158.8721 375 L1173.8721 375 L1173.8721 388 L1002.6162 388 Z" clip-path="url(#clipPath2)"/>
      <path fill="none" d="M1158.8721 360 L1158.8721 375 L1173.8721 375 Z" clip-path="url(#clipPath2)" fill-rule="evenodd"/>
      <text x="1023.2443" font-size="20px" y="380.6" clip-path="url(#clipPath2)" font-family="'Ubuntu Mono'" stroke="none" xml:space="preserve">parser-theory</text>
    </g>
    <g fill="white" text-rendering="geometricPrecision" shape-rendering="geometricPrecision" transform="matrix(1,0,0,1,-409,-183)" stroke="white">
      <path d="M933.2651 295 L1056.521 295 L1056.521 310 L1071.521 310 L1071.521 323 L933.2651 323 Z" stroke="none" clip-path="url(#clipPath2)"/>
      <path d="M1056.521 295 L1056.521 310 L1071.521 310 Z" clip-path="url(#clipPath2)" fill-rule="evenodd" stroke="none"/>
    </g>
    <g text-rendering="geometricPrecision" stroke-miterlimit="1.45" shape-rendering="geometricPrecision" transform="matrix(1,0,0,1,-409,-183)" stroke-linecap="butt">
      <path fill="none" d="M933.2651 295 L1056.521 295 L1056.521 310 L1071.521 310 L1071.521 323 L933.2651 323 Z" clip-path="url(#clipPath2)"/>
      <path fill="none" d="M1056.521 295 L1056.521 310 L1071.521 310 Z" clip-path="url(#clipPath2)" fill-rule="evenodd"/>
      <text x="952.3931" font-size="20px" y="315.6" clip-path="url(#clipPath2)" font-family="'Ubuntu Mono'" stroke="none" xml:space="preserve">parser-jvm</text>
    </g>
    <g fill="white" text-rendering="geometricPrecision" shape-rendering="geometricPrecision" transform="matrix(1,0,0,1,-409,-183)" stroke="white">
      <path d="M1117.6489 295 L1240.9048 295 L1240.9048 310 L1255.9048 310 L1255.9048 323 L1117.6489 323 Z" stroke="none" clip-path="url(#clipPath2)"/>
      <path d="M1240.9048 295 L1240.9048 310 L1255.9048 310 Z" clip-path="url(#clipPath2)" fill-rule="evenodd" stroke="none"/>
    </g>
    <g text-rendering="geometricPrecision" stroke-miterlimit="1.45" shape-rendering="geometricPrecision" transform="matrix(1,0,0,1,-409,-183)" stroke-linecap="butt">
      <path fill="none" d="M1117.6489 295 L1240.9048 295 L1240.9048 310 L1255.9048 310 L1255.9048 323 L1117.6489 323 Z" clip-path="url(#clipPath2)"/>
      <path fill="none" d="M1240.9048 295 L1240.9048 310 L1255.9048 310 Z" clip-path="url(#clipPath2)" fill-rule="evenodd"/>
      <text x="1141.777" font-size="20px" y="315.6" clip-path="url(#clipPath2)" font-family="'Ubuntu Mono'" stroke="none" xml:space="preserve">parser-js</text>
      <path fill="none" d="M678 295.0034 L678 268.9961" clip-path="url(#clipPath2)"/>
      <path d="M678 257.9961 L672 269.9961 L684 269.9961 Z" clip-path="url(#clipPath2)" stroke="none"/>
      <path fill="none" d="M678 360.0034 L678 333.9961" clip-path="url(#clipPath2)"/>
      <path d="M678 322.9961 L672 334.9961 L684 334.9961 Z" clip-path="url(#clipPath2)" stroke="none"/>
      <path fill="none" d="M678 425.0034 L678 398.9961" clip-path="url(#clipPath2)"/>
      <path d="M678 387.9961 L672 399.9961 L684 399.9961 Z" clip-path="url(#clipPath2)" stroke="none"/>
      <path fill="none" d="M572.1028 489.9875 L639.0034 457.7761" clip-path="url(#clipPath2)"/>
      <path d="M648.9144 453.0042 L635.4995 452.8039 L640.7053 463.616 Z" clip-path="url(#clipPath2)" stroke="none"/>
      <path fill="none" d="M736.2662 490.0034 L702.2944 460.2661" clip-path="url(#clipPath2)"/>
      <path d="M694.0175 453.021 L699.095 465.4395 L706.9988 456.4101 Z" clip-path="url(#clipPath2)" stroke="none"/>
      <path fill="none" d="M506.1206 555.0034 L526.4164 526.9348" clip-path="url(#clipPath2)"/>
      <path d="M532.8618 518.0209 L520.9683 524.2295 L530.6926 531.2608 Z" clip-path="url(#clipPath2)" stroke="none"/>
      <path fill="none" d="M785.7543 244 L737.1158 244" clip-path="url(#clipPath2)"/>
      <path d="M726.1158 244 L738.1158 250 L738.1158 238 Z" clip-path="url(#clipPath2)" stroke="none"/>
      <path fill="none" d="M785.7543 374 L737.1158 374" clip-path="url(#clipPath2)"/>
      <path d="M726.1158 374 L738.1158 380 L738.1158 368 Z" clip-path="url(#clipPath2)" stroke="none"/>
      <path fill="none" d="M884.8721 360.0034 L884.8721 269.019" clip-path="url(#clipPath2)"/>
      <path d="M884.8721 258.019 L878.8721 270.019 L890.8721 270.019 Z" clip-path="url(#clipPath2)" stroke="none"/>
      <path fill="none" d="M570.2981 244 L618.8549 244" clip-path="url(#clipPath2)"/>
      <path d="M629.8549 244 L617.8549 238 L617.8549 250 Z" clip-path="url(#clipPath2)" stroke="none"/>
      <path fill="none" d="M570.2981 309 L618.8549 309" clip-path="url(#clipPath2)"/>
      <path d="M629.8549 309 L617.8549 303 L617.8549 315 Z" clip-path="url(#clipPath2)" stroke="none"/>
      <path fill="none" d="M497.1279 295.0034 L497.1279 268.9961" clip-path="url(#clipPath2)"/>
      <path d="M497.1279 257.9961 L491.1279 269.9961 L503.1279 269.9961 Z" clip-path="url(#clipPath2)" stroke="none"/>
      <path fill="none" d="M570.2981 374 L618.8549 374" clip-path="url(#clipPath2)"/>
      <path d="M629.8549 374 L617.8549 368 L617.8549 380 Z" clip-path="url(#clipPath2)" stroke="none"/>
      <path fill="none" d="M497.1279 360.0034 L497.1279 333.9961" clip-path="url(#clipPath2)"/>
      <path d="M497.1279 322.9961 L491.1279 334.9961 L503.1279 334.9961 Z" clip-path="url(#clipPath2)" stroke="none"/>
      <path fill="none" d="M1053.2141 229.9995 L1036.9636 224.1619 L1011.3234 216.3684 L985.6831 209.9919 L960.0428 205.0324 L934.4026 201.4899 L908.7623 199.3644 L883.1221 198.6559 L857.4818 199.3644 L831.8416 201.4899 L806.2013 205.0324 L780.561 209.9919 L754.9208 216.3684 L729.2805 224.1619 L723.3824 226.2807" clip-path="url(#clipPath2)"/>
      <path d="M713.03 229.9995 L726.3519 231.5893 L722.295 220.2959 Z" clip-path="url(#clipPath2)" stroke="none"/>
      <path fill="none" d="M1088.2441 360.0034 L1088.2441 269.019" clip-path="url(#clipPath2)"/>
      <path d="M1088.2441 258.019 L1082.2441 270.019 L1094.2441 270.019 Z" clip-path="url(#clipPath2)" stroke="none"/>
      <path fill="none" d="M1050.7102 387.9956 L1036.9636 392.634 L1011.3234 399.9545 L985.6831 405.944 L960.0428 410.6025 L934.4026 413.93 L908.7623 415.9265 L883.1221 416.592 L857.4818 415.9265 L831.8416 413.93 L806.2013 410.6025 L780.561 405.944 L754.9208 399.9545 L729.2805 392.634 L725.9566 391.5125" clip-path="url(#clipPath2)"/>
      <path d="M715.5339 387.9956 L724.9858 397.5172 L728.8224 386.1471 Z" clip-path="url(#clipPath2)" stroke="none"/>
      <path fill="none" stroke-dasharray="6,2" d="M1069.7367 258.0125 L1024.8922 291.9653" clip-path="url(#clipPath2)"/>
      <path stroke-dasharray="6,2" d="M1021.7031 294.3798 L1034.8921 291.9198 L1021.7031 294.3798 L1027.6486 282.3526 Z" clip-path="url(#clipPath2)" stroke="none"/>
      <path fill="none" stroke-miterlimit="10" d="M1021.7031 294.3798 L1034.8921 291.9198 L1021.7031 294.3798 L1027.6486 282.3526 Z" clip-path="url(#clipPath2)" stroke-linecap="square"/>
      <path fill="none" stroke-dasharray="6,2" d="M1109.4855 258.0125 L1161.3556 292.2301" clip-path="url(#clipPath2)"/>
      <path stroke-dasharray="6,2" d="M1164.6946 294.4327 L1157.9816 282.8165 L1164.6946 294.4327 L1151.3738 292.8333 Z" clip-path="url(#clipPath2)" stroke="none"/>
      <path fill="none" stroke-miterlimit="10" d="M1164.6946 294.4327 L1157.9816 282.8165 L1164.6946 294.4327 L1151.3738 292.8333 Z" clip-path="url(#clipPath2)" stroke-linecap="square"/>
    </g>
    <g fill="rgb(210,210,210)" text-rendering="geometricPrecision" shape-rendering="geometricPrecision" transform="matrix(1,0,0,1,-409,-183) translate(4,4)" stroke="rgb(210,210,210)">
      <rect x="931.3839" width="324.5209" height="133.1153" y="449.8847" clip-path="url(#clipPath3)" stroke="none"/>
    </g>
    <g fill="rgb(242,240,216)" text-rendering="geometricPrecision" shape-rendering="geometricPrecision" transform="matrix(1,0,0,1,-409,-183)" stroke="rgb(242,240,216)">
      <rect x="931.3839" width="324.5209" height="133.1153" y="449.8847" clip-path="url(#clipPath2)" stroke="none"/>
      <rect x="931.3839" y="449.8847" clip-path="url(#clipPath2)" fill="rgb(183,182,158)" width="324.5209" height="21.4609" stroke="none"/>
    </g>
    <g font-size="15px" stroke-linecap="butt" transform="matrix(1,0,0,1,-409,-183)" text-rendering="geometricPrecision" font-family="sans-serif" shape-rendering="geometricPrecision" stroke-miterlimit="1.45">
      <text x="1198.541" xml:space="preserve" y="465.808" clip-path="url(#clipPath2)" stroke="none">Legend</text>
      <rect fill="none" x="931.3839" width="324.5209" height="133.1153" y="449.8847" clip-path="url(#clipPath2)"/>
    </g>
    <g fill="rgb(255,204,0)" text-rendering="geometricPrecision" shape-rendering="geometricPrecision" transform="matrix(1,0,0,1,-409,-183)" stroke="rgb(255,204,0)">
      <path d="M936.3839 476.3456 L1039.3197 476.3456 L1039.3197 491.3456 L1054.3197 491.3456 L1054.3197 504.3456 L936.3839 504.3456 Z" stroke="none" clip-path="url(#clipPath2)"/>
      <path fill="white" d="M1039.3197 476.3456 L1039.3197 491.3456 L1054.3197 491.3456 Z" clip-path="url(#clipPath2)" fill-rule="evenodd" stroke="none"/>
    </g>
    <g text-rendering="geometricPrecision" stroke-miterlimit="1.45" shape-rendering="geometricPrecision" transform="matrix(1,0,0,1,-409,-183)" stroke-linecap="butt">
      <path fill="none" d="M936.3839 476.3456 L1039.3197 476.3456 L1039.3197 491.3456 L1054.3197 491.3456 L1054.3197 504.3456 L936.3839 504.3456 Z" clip-path="url(#clipPath2)"/>
      <path fill="none" d="M1039.3197 476.3456 L1039.3197 491.3456 L1054.3197 491.3456 Z" clip-path="url(#clipPath2)" fill-rule="evenodd"/>
      <text x="965.3518" font-size="20px" y="496.9456" clip-path="url(#clipPath2)" font-family="'Ubuntu Mono'" stroke="none" xml:space="preserve">module</text>
    </g>
    <g fill="rgb(153,204,0)" text-rendering="geometricPrecision" shape-rendering="geometricPrecision" transform="matrix(1,0,0,1,-409,-183)" stroke="rgb(153,204,0)">
      <path d="M936.3839 512.1728 L1039.3197 512.1728 L1039.3197 527.1728 L1054.3197 527.1728 L1054.3197 540.1728 L936.3839 540.1728 Z" stroke="none" clip-path="url(#clipPath2)"/>
      <path fill="white" d="M1039.3197 512.1728 L1039.3197 527.1728 L1054.3197 527.1728 Z" clip-path="url(#clipPath2)" fill-rule="evenodd" stroke="none"/>
    </g>
    <g text-rendering="geometricPrecision" stroke-miterlimit="1.45" shape-rendering="geometricPrecision" transform="matrix(1,0,0,1,-409,-183)" stroke-linecap="butt">
      <path fill="none" d="M936.3839 512.1728 L1039.3197 512.1728 L1039.3197 527.1728 L1054.3197 527.1728 L1054.3197 540.1728 L936.3839 540.1728 Z" clip-path="url(#clipPath2)"/>
      <path fill="none" d="M1039.3197 512.1728 L1039.3197 527.1728 L1054.3197 527.1728 Z" clip-path="url(#clipPath2)" fill-rule="evenodd"/>
      <text x="975.3518" font-size="20px" y="532.7728" clip-path="url(#clipPath2)" font-family="'Ubuntu Mono'" stroke="none" xml:space="preserve">root</text>
    </g>
    <g fill="yellow" text-rendering="geometricPrecision" shape-rendering="geometricPrecision" transform="matrix(1,0,0,1,-409,-183)" stroke="yellow">
      <path d="M937.5118 548 L1039.3197 548 L1039.3197 563 L1054.3197 563 L1054.3197 576 L937.5118 576 Z" stroke="none" clip-path="url(#clipPath2)"/>
      <path fill="white" d="M1039.3197 548 L1039.3197 563 L1054.3197 563 Z" clip-path="url(#clipPath2)" fill-rule="evenodd" stroke="none"/>
    </g>
    <g text-rendering="geometricPrecision" stroke-miterlimit="1.45" shape-rendering="geometricPrecision" transform="matrix(1,0,0,1,-409,-183)" stroke-linecap="butt">
      <path fill="none" d="M937.5118 548 L1039.3197 548 L1039.3197 563 L1054.3197 563 L1054.3197 576 L937.5118 576 Z" clip-path="url(#clipPath2)"/>
      <path fill="none" d="M1039.3197 548 L1039.3197 563 L1054.3197 563 Z" clip-path="url(#clipPath2)" fill-rule="evenodd"/>
      <text x="955.9158" font-size="20px" y="568.6" clip-path="url(#clipPath2)" font-family="'Ubuntu Mono'" stroke="none" xml:space="preserve">api only</text>
    </g>
    <g fill="white" text-rendering="geometricPrecision" shape-rendering="geometricPrecision" transform="matrix(1,0,0,1,-409,-183)" stroke="white">
      <path d="M1068.6489 476.3456 L1232.9048 476.3456 L1232.9048 491.3456 L1247.9048 491.3456 L1247.9048 504.3456 L1068.6489 504.3456 Z" stroke="none" clip-path="url(#clipPath2)"/>
      <path d="M1232.9048 476.3456 L1232.9048 491.3456 L1247.9048 491.3456 Z" clip-path="url(#clipPath2)" fill-rule="evenodd" stroke="none"/>
    </g>
    <g text-rendering="geometricPrecision" stroke-miterlimit="1.45" shape-rendering="geometricPrecision" transform="matrix(1,0,0,1,-409,-183)" stroke-linecap="butt">
      <path fill="none" d="M1068.6489 476.3456 L1232.9048 476.3456 L1232.9048 491.3456 L1247.9048 491.3456 L1247.9048 504.3456 L1068.6489 504.3456 Z" clip-path="url(#clipPath2)"/>
      <path fill="none" d="M1232.9048 476.3456 L1232.9048 491.3456 L1247.9048 491.3456 Z" clip-path="url(#clipPath2)" fill-rule="evenodd"/>
      <text x="1088.277" font-size="20px" y="496.9456" clip-path="url(#clipPath2)" font-family="'Ubuntu Mono'" stroke="none" xml:space="preserve">implementation</text>
    </g>
    <g fill="rgb(255,204,0)" text-rendering="geometricPrecision" shape-rendering="geometricPrecision" transform="matrix(1,0,0,1,-409,-183)" stroke="rgb(255,204,0)">
      <path d="M424 425 L553 425 L553 440 L568 440 L568 453 L424 453 Z" stroke="none" clip-path="url(#clipPath2)"/>
      <path fill="white" d="M553 425 L553 440 L568 440 Z" clip-path="url(#clipPath2)" fill-rule="evenodd" stroke="none"/>
    </g>
    <g text-rendering="geometricPrecision" stroke-miterlimit="1.45" shape-rendering="geometricPrecision" transform="matrix(1,0,0,1,-409,-183)" stroke-linecap="butt">
      <path fill="none" d="M424 425 L553 425 L553 440 L568 440 L568 453 L424 453 Z" clip-path="url(#clipPath2)"/>
      <path fill="none" d="M553 425 L553 440 L568 440 Z" clip-path="url(#clipPath2)" fill-rule="evenodd"/>
      <text x="451.0001" font-size="20px" y="445.6" clip-path="url(#clipPath2)" font-family="'Ubuntu Mono'" stroke="none" xml:space="preserve">dsl-solve</text>
    </g>
    <g fill="rgb(255,204,0)" text-rendering="geometricPrecision" shape-rendering="geometricPrecision" transform="matrix(1,0,0,1,-409,-183)" stroke="rgb(255,204,0)">
      <path d="M560 555 L617.6279 555 L617.6279 570 L632.6279 570 L632.6279 583 L560 583 Z" stroke="none" clip-path="url(#clipPath2)"/>
      <path fill="white" d="M617.6279 555 L617.6279 570 L632.6279 570 Z" clip-path="url(#clipPath2)" fill-rule="evenodd" stroke="none"/>
    </g>
    <g text-rendering="geometricPrecision" stroke-miterlimit="1.45" shape-rendering="geometricPrecision" transform="matrix(1,0,0,1,-409,-183)" stroke-linecap="butt">
      <path fill="none" d="M560 555 L617.6279 555 L617.6279 570 L632.6279 570 L632.6279 583 L560 583 Z" clip-path="url(#clipPath2)"/>
      <path fill="none" d="M617.6279 555 L617.6279 570 L632.6279 570 Z" clip-path="url(#clipPath2)" fill-rule="evenodd"/>
      <text x="581.314" font-size="20px" y="575.6" clip-path="url(#clipPath2)" font-family="'Ubuntu Mono'" stroke="none" xml:space="preserve">ide</text>
    </g>
    <g fill="rgb(255,204,0)" text-rendering="geometricPrecision" shape-rendering="geometricPrecision" transform="matrix(1,0,0,1,-409,-183)" stroke="rgb(255,204,0)">
      <path d="M785.7441 425 L878.744 425 L878.744 440 L893.744 440 L893.744 453 L785.7441 453 Z" stroke="none" clip-path="url(#clipPath2)"/>
      <path fill="white" d="M878.744 425 L878.744 440 L893.744 440 Z" clip-path="url(#clipPath2)" fill-rule="evenodd" stroke="none"/>
    </g>
    <g text-rendering="geometricPrecision" stroke-miterlimit="1.45" shape-rendering="geometricPrecision" transform="matrix(1,0,0,1,-409,-183)" stroke-linecap="butt">
      <path fill="none" d="M785.7441 425 L878.744 425 L878.744 440 L893.744 440 L893.744 453 L785.7441 453 Z" clip-path="url(#clipPath2)"/>
      <path fill="none" d="M878.744 425 L878.744 440 L893.744 440 Z" clip-path="url(#clipPath2)" fill-rule="evenodd"/>
      <text x="804.7441" font-size="20px" y="445.6" clip-path="url(#clipPath2)" font-family="'Ubuntu Mono'" stroke="none" xml:space="preserve">oop-lib</text>
      <path fill="none" d="M1084.3197 533 L1206.9048 533" clip-path="url(#clipPath2)"/>
      <path d="M1217.9048 533 L1205.9048 527 L1205.9048 539 Z" clip-path="url(#clipPath2)" stroke="none"/>
      <text x="1105.6501" xml:space="preserve" y="524.5607" clip-path="url(#clipPath2)" font-family="sans-serif" stroke="none">depends on</text>
      <path fill="none" stroke-dasharray="6,2" d="M1084.3197 563 L1212.9048 563" clip-path="url(#clipPath2)"/>
      <path stroke-dasharray="6,2" d="M1216.9048 563 L1204.9048 557 L1216.9048 563 L1204.9048 569 Z" clip-path="url(#clipPath2)" stroke="none"/>
      <path fill="none" stroke-miterlimit="10" d="M1216.9048 563 L1204.9048 557 L1216.9048 563 L1204.9048 569 Z" clip-path="url(#clipPath2)" stroke-linecap="square"/>
      <text x="1137.3662" xml:space="preserve" y="554.5607" clip-path="url(#clipPath2)" font-family="sans-serif" stroke="none">uses</text>
      <path fill="none" d="M568.0269 439 L618.8599 439" clip-path="url(#clipPath2)"/>
      <path d="M629.8599 439 L617.8599 433 L617.8599 445 Z" clip-path="url(#clipPath2)" stroke="none"/>
      <path fill="none" d="M496.2429 425.0034 L496.6942 398.9944" clip-path="url(#clipPath2)"/>
      <path d="M496.8851 387.996 L490.6778 399.8901 L502.676 400.0983 Z" clip-path="url(#clipPath2)" stroke="none"/>
      <path fill="none" d="M584.8337 555.0034 L561.4762 526.526" clip-path="url(#clipPath2)"/>
      <path d="M554.5002 518.021 L557.4713 531.1043 L566.7495 523.4941 Z" clip-path="url(#clipPath2)" stroke="none"/>
      <path fill="none" d="M785.7635 439 L737.12 439" clip-path="url(#clipPath2)"/>
      <path d="M726.12 439 L738.12 445 L738.12 433 Z" clip-path="url(#clipPath2)" stroke="none"/>
    </g>
  </g>
</svg>
