<?xml version="1.0" encoding="UTF-8"?><svg xmlns="http://www.w3.org/2000/svg" xmlns:xlink="http://www.w3.org/1999/xlink" fill-opacity="1" color-rendering="auto" color-interpolation="auto" text-rendering="auto" stroke="black" stroke-linecap="square" width="1013" stroke-miterlimit="10" shape-rendering="auto" stroke-opacity="1" fill="black" stroke-dasharray="none" font-weight="normal" stroke-width="1" height="458" font-family="'Dialog'" font-style="normal" stroke-linejoin="miter" font-size="12px" stroke-dashoffset="0" image-rendering="auto">
  <!--Generated by ySVG 2.5-->
  <defs id="genericDefs"/>
  <g>
    <defs id="defs1">
      <clipPath clipPathUnits="userSpaceOnUse" id="clipPath1">
        <path d="M0 0 L1013 0 L1013 458 L0 458 L0 0 Z"/>
      </clipPath>
      <clipPath clipPathUnits="userSpaceOnUse" id="clipPath2">
        <path d="M264 164 L1277 164 L1277 622 L264 622 L264 164 Z"/>
      </clipPath>
      <clipPath clipPathUnits="userSpaceOnUse" id="clipPath3">
        <path d="M260 160 L1273 160 L1273 618 L260 618 L260 160 Z"/>
      </clipPath>
    </defs>
    <g fill="rgb(153,204,0)" text-rendering="geometricPrecision" shape-rendering="geometricPrecision" transform="matrix(1,0,0,1,-264,-164)" stroke="rgb(153,204,0)">
      <path d="M629.8721 230 L711.1279 230 L711.1279 245 L726.1279 245 L726.1279 258 L629.8721 258 Z" stroke="none" clip-path="url(#clipPath2)"/>
    </g>
    <g fill="white" text-rendering="geometricPrecision" shape-rendering="geometricPrecision" transform="matrix(1,0,0,1,-264,-164)" stroke="white">
      <path d="M711.1279 230 L711.1279 245 L726.1279 245 Z" fill-rule="evenodd" clip-path="url(#clipPath2)" stroke="none"/>
    </g>
    <g text-rendering="geometricPrecision" stroke-miterlimit="1.45" shape-rendering="geometricPrecision" transform="matrix(1,0,0,1,-264,-164)" stroke-linecap="butt">
      <path fill="none" d="M629.8721 230 L711.1279 230 L711.1279 245 L726.1279 245 L726.1279 258 L629.8721 258 Z" clip-path="url(#clipPath2)"/>
      <path fill="none" d="M711.1279 230 L711.1279 245 L726.1279 245 Z" clip-path="url(#clipPath2)" fill-rule="evenodd"/>
      <text x="656.1201" xml:space="preserve" font-size="20px" y="250.9238" clip-path="url(#clipPath2)" stroke="none">core</text>
    </g>
    <g fill="rgb(255,204,0)" text-rendering="geometricPrecision" shape-rendering="geometricPrecision" transform="matrix(1,0,0,1,-264,-164)" stroke="rgb(255,204,0)">
      <path d="M629.8721 295 L711.1279 295 L711.1279 310 L726.1279 310 L726.1279 323 L629.8721 323 Z" stroke="none" clip-path="url(#clipPath2)"/>
      <path fill="white" d="M711.1279 295 L711.1279 310 L726.1279 310 Z" clip-path="url(#clipPath2)" fill-rule="evenodd" stroke="none"/>
    </g>
    <g text-rendering="geometricPrecision" stroke-miterlimit="1.45" shape-rendering="geometricPrecision" transform="matrix(1,0,0,1,-264,-164)" stroke-linecap="butt">
      <path fill="none" d="M629.8721 295 L711.1279 295 L711.1279 310 L726.1279 310 L726.1279 323 L629.8721 323 Z" clip-path="url(#clipPath2)"/>
      <path fill="none" d="M711.1279 295 L711.1279 310 L726.1279 310 Z" clip-path="url(#clipPath2)" fill-rule="evenodd"/>
      <text x="653.1074" xml:space="preserve" font-size="20px" y="315.9238" clip-path="url(#clipPath2)" stroke="none">unify</text>
    </g>
    <g fill="rgb(255,204,0)" text-rendering="geometricPrecision" shape-rendering="geometricPrecision" transform="matrix(1,0,0,1,-264,-164)" stroke="rgb(255,204,0)">
      <path d="M629.8721 360 L711.1279 360 L711.1279 375 L726.1279 375 L726.1279 388 L629.8721 388 Z" stroke="none" clip-path="url(#clipPath2)"/>
      <path fill="white" d="M711.1279 360 L711.1279 375 L726.1279 375 Z" clip-path="url(#clipPath2)" fill-rule="evenodd" stroke="none"/>
    </g>
    <g text-rendering="geometricPrecision" stroke-miterlimit="1.45" shape-rendering="geometricPrecision" transform="matrix(1,0,0,1,-264,-164)" stroke-linecap="butt">
      <path fill="none" d="M629.8721 360 L711.1279 360 L711.1279 375 L726.1279 375 L726.1279 388 L629.8721 388 Z" clip-path="url(#clipPath2)"/>
      <path fill="none" d="M711.1279 360 L711.1279 375 L726.1279 375 Z" clip-path="url(#clipPath2)" fill-rule="evenodd"/>
      <text x="645.4414" xml:space="preserve" font-size="20px" y="380.9238" clip-path="url(#clipPath2)" stroke="none">theory</text>
    </g>
    <g fill="yellow" text-rendering="geometricPrecision" shape-rendering="geometricPrecision" transform="matrix(1,0,0,1,-264,-164)" stroke="yellow">
      <path d="M629.8721 425 L711.1279 425 L711.1279 440 L726.1279 440 L726.1279 453 L629.8721 453 Z" stroke="none" clip-path="url(#clipPath2)"/>
      <path fill="white" d="M711.1279 425 L711.1279 440 L726.1279 440 Z" clip-path="url(#clipPath2)" fill-rule="evenodd" stroke="none"/>
    </g>
    <g text-rendering="geometricPrecision" stroke-miterlimit="1.45" shape-rendering="geometricPrecision" transform="matrix(1,0,0,1,-264,-164)" stroke-linecap="butt">
      <path fill="none" d="M629.8721 425 L711.1279 425 L711.1279 440 L726.1279 440 L726.1279 453 L629.8721 453 Z" clip-path="url(#clipPath2)"/>
      <path fill="none" d="M711.1279 425 L711.1279 440 L726.1279 440 Z" clip-path="url(#clipPath2)" fill-rule="evenodd"/>
      <text x="651.8232" xml:space="preserve" font-size="20px" y="445.9238" clip-path="url(#clipPath2)" stroke="none">solve</text>
    </g>
    <g fill="rgb(255,204,0)" text-rendering="geometricPrecision" shape-rendering="geometricPrecision" transform="matrix(1,0,0,1,-264,-164)" stroke="rgb(255,204,0)">
      <path d="M714.4882 527 L878.744 527 L878.744 542 L893.744 542 L893.744 555 L714.4882 555 Z" stroke="none" clip-path="url(#clipPath2)"/>
      <path fill="white" d="M878.744 527 L878.744 542 L893.744 542 Z" clip-path="url(#clipPath2)" fill-rule="evenodd" stroke="none"/>
    </g>
    <g text-rendering="geometricPrecision" stroke-miterlimit="1.45" shape-rendering="geometricPrecision" transform="matrix(1,0,0,1,-264,-164)" stroke-linecap="butt">
      <path fill="none" d="M714.4882 527 L878.744 527 L878.744 542 L893.744 542 L893.744 555 L714.4882 555 Z" clip-path="url(#clipPath2)"/>
      <path fill="none" d="M878.744 527 L878.744 542 L893.744 542 Z" clip-path="url(#clipPath2)" fill-rule="evenodd"/>
      <text x="741.2303" xml:space="preserve" font-size="20px" y="547.9238" clip-path="url(#clipPath2)" stroke="none">solve-classic</text>
    </g>
    <g fill="rgb(255,204,0)" text-rendering="geometricPrecision" shape-rendering="geometricPrecision" transform="matrix(1,0,0,1,-264,-164)" stroke="rgb(255,204,0)">
      <path d="M491.8603 527 L656.1161 527 L656.1161 542 L671.1161 542 L671.1161 555 L491.8603 555 Z" stroke="none" clip-path="url(#clipPath2)"/>
      <path fill="white" d="M656.1161 527 L656.1161 542 L671.1161 542 Z" clip-path="url(#clipPath2)" fill-rule="evenodd" stroke="none"/>
    </g>
    <g text-rendering="geometricPrecision" stroke-miterlimit="1.45" shape-rendering="geometricPrecision" transform="matrix(1,0,0,1,-264,-164)" stroke-linecap="butt">
      <path fill="none" d="M491.8603 527 L656.1161 527 L656.1161 542 L671.1161 542 L671.1161 555 L491.8603 555 Z" clip-path="url(#clipPath2)"/>
      <path fill="none" d="M656.1161 527 L656.1161 542 L671.1161 542 Z" clip-path="url(#clipPath2)" fill-rule="evenodd"/>
      <text x="511.2294" xml:space="preserve" font-size="20px" y="547.9238" clip-path="url(#clipPath2)" stroke="none">solve-streams</text>
    </g>
    <g fill="rgb(255,204,0)" text-rendering="geometricPrecision" shape-rendering="geometricPrecision" transform="matrix(1,0,0,1,-264,-164)" stroke="rgb(255,204,0)">
      <path d="M816.128 592 L886.3839 592 L886.3839 607 L901.3839 607 L901.3839 620 L816.128 620 Z" stroke="none" clip-path="url(#clipPath2)"/>
      <path fill="white" d="M886.3839 592 L886.3839 607 L901.3839 607 Z" clip-path="url(#clipPath2)" fill-rule="evenodd" stroke="none"/>
    </g>
    <g text-rendering="geometricPrecision" stroke-miterlimit="1.45" shape-rendering="geometricPrecision" transform="matrix(1,0,0,1,-264,-164)" stroke-linecap="butt">
      <path fill="none" d="M816.128 592 L886.3839 592 L886.3839 607 L901.3839 607 L901.3839 620 L816.128 620 Z" clip-path="url(#clipPath2)"/>
      <path fill="none" d="M886.3839 592 L886.3839 607 L901.3839 607 Z" clip-path="url(#clipPath2)" fill-rule="evenodd"/>
      <text x="839.3663" xml:space="preserve" font-size="20px" y="612.9238" clip-path="url(#clipPath2)" stroke="none">repl</text>
    </g>
    <g fill="rgb(255,204,0)" text-rendering="geometricPrecision" shape-rendering="geometricPrecision" transform="matrix(1,0,0,1,-264,-164)" stroke="rgb(255,204,0)">
      <path d="M785.7441 230 L969 230 L969 245 L984 245 L984 258 L785.7441 258 Z" stroke="none" clip-path="url(#clipPath2)"/>
      <path fill="white" d="M969 230 L969 245 L984 245 Z" clip-path="url(#clipPath2)" fill-rule="evenodd" stroke="none"/>
    </g>
    <g text-rendering="geometricPrecision" stroke-miterlimit="1.45" shape-rendering="geometricPrecision" transform="matrix(1,0,0,1,-264,-164)" stroke-linecap="butt">
      <path fill="none" d="M785.7441 230 L969 230 L969 245 L984 245 L984 258 L785.7441 258 Z" clip-path="url(#clipPath2)"/>
      <path fill="none" d="M969 230 L969 245 L984 245 Z" clip-path="url(#clipPath2)" fill-rule="evenodd"/>
      <text x="818.0459" xml:space="preserve" font-size="20px" y="250.9238" clip-path="url(#clipPath2)" stroke="none">serialize-core</text>
    </g>
    <g fill="rgb(255,204,0)" text-rendering="geometricPrecision" shape-rendering="geometricPrecision" transform="matrix(1,0,0,1,-264,-164)" stroke="rgb(255,204,0)">
      <path d="M785.7441 360 L969 360 L969 375 L984 375 L984 388 L785.7441 388 Z" stroke="none" clip-path="url(#clipPath2)"/>
      <path fill="white" d="M969 360 L969 375 L984 375 Z" clip-path="url(#clipPath2)" fill-rule="evenodd" stroke="none"/>
    </g>
    <g text-rendering="geometricPrecision" stroke-miterlimit="1.45" shape-rendering="geometricPrecision" transform="matrix(1,0,0,1,-264,-164)" stroke-linecap="butt">
      <path fill="none" d="M785.7441 360 L969 360 L969 375 L984 375 L984 388 L785.7441 388 Z" clip-path="url(#clipPath2)"/>
      <path fill="none" d="M969 360 L969 375 L984 375 Z" clip-path="url(#clipPath2)" fill-rule="evenodd"/>
      <text x="807.3672" xml:space="preserve" font-size="20px" y="380.9238" clip-path="url(#clipPath2)" stroke="none">serialize-theory</text>
    </g>
    <g fill="rgb(255,204,0)" text-rendering="geometricPrecision" shape-rendering="geometricPrecision" transform="matrix(1,0,0,1,-264,-164)" stroke="rgb(255,204,0)">
      <path d="M424 230 L555.2559 230 L555.2559 245 L570.2559 245 L570.2559 258 L424 258 Z" stroke="none" clip-path="url(#clipPath2)"/>
      <path fill="white" d="M555.2559 230 L555.2559 245 L570.2559 245 Z" clip-path="url(#clipPath2)" fill-rule="evenodd" stroke="none"/>
    </g>
    <g text-rendering="geometricPrecision" stroke-miterlimit="1.45" shape-rendering="geometricPrecision" transform="matrix(1,0,0,1,-264,-164)" stroke-linecap="butt">
      <path fill="none" d="M424 230 L555.2559 230 L555.2559 245 L570.2559 245 L570.2559 258 L424 258 Z" clip-path="url(#clipPath2)"/>
      <path fill="none" d="M555.2559 230 L555.2559 245 L570.2559 245 Z" clip-path="url(#clipPath2)" fill-rule="evenodd"/>
      <text x="457.3037" xml:space="preserve" font-size="20px" y="250.9238" clip-path="url(#clipPath2)" stroke="none">dsl-core</text>
    </g>
    <g fill="rgb(255,204,0)" text-rendering="geometricPrecision" shape-rendering="geometricPrecision" transform="matrix(1,0,0,1,-264,-164)" stroke="rgb(255,204,0)">
      <path d="M424 295 L555.2559 295 L555.2559 310 L570.2559 310 L570.2559 323 L424 323 Z" stroke="none" clip-path="url(#clipPath2)"/>
      <path fill="white" d="M555.2559 295 L555.2559 310 L570.2559 310 Z" clip-path="url(#clipPath2)" fill-rule="evenodd" stroke="none"/>
    </g>
    <g text-rendering="geometricPrecision" stroke-miterlimit="1.45" shape-rendering="geometricPrecision" transform="matrix(1,0,0,1,-264,-164)" stroke-linecap="butt">
      <path fill="none" d="M424 295 L555.2559 295 L555.2559 310 L570.2559 310 L570.2559 323 L424 323 Z" clip-path="url(#clipPath2)"/>
      <path fill="none" d="M555.2559 295 L555.2559 310 L570.2559 310 Z" clip-path="url(#clipPath2)" fill-rule="evenodd"/>
      <text x="454.291" xml:space="preserve" font-size="20px" y="315.9238" clip-path="url(#clipPath2)" stroke="none">dsl-unify</text>
    </g>
    <g fill="rgb(255,204,0)" text-rendering="geometricPrecision" shape-rendering="geometricPrecision" transform="matrix(1,0,0,1,-264,-164)" stroke="rgb(255,204,0)">
      <path d="M424 360 L555.2559 360 L555.2559 375 L570.2559 375 L570.2559 388 L424 388 Z" stroke="none" clip-path="url(#clipPath2)"/>
      <path fill="white" d="M555.2559 360 L555.2559 375 L570.2559 375 Z" clip-path="url(#clipPath2)" fill-rule="evenodd" stroke="none"/>
    </g>
    <g text-rendering="geometricPrecision" stroke-miterlimit="1.45" shape-rendering="geometricPrecision" transform="matrix(1,0,0,1,-264,-164)" stroke-linecap="butt">
      <path fill="none" d="M424 360 L555.2559 360 L555.2559 375 L570.2559 375 L570.2559 388 L424 388 Z" clip-path="url(#clipPath2)"/>
      <path fill="none" d="M555.2559 360 L555.2559 375 L570.2559 375 Z" clip-path="url(#clipPath2)" fill-rule="evenodd"/>
      <text x="446.625" xml:space="preserve" font-size="20px" y="380.9238" clip-path="url(#clipPath2)" stroke="none">dsl-theory</text>
    </g>
    <g fill="rgb(255,204,0)" text-rendering="geometricPrecision" shape-rendering="geometricPrecision" transform="matrix(1,0,0,1,-264,-164)" stroke="rgb(255,204,0)">
      <path d="M1002.6162 230 L1158.8721 230 L1158.8721 245 L1173.8721 245 L1173.8721 258 L1002.6162 258 Z" stroke="none" clip-path="url(#clipPath2)"/>
      <path fill="white" d="M1158.8721 230 L1158.8721 245 L1173.8721 245 Z" clip-path="url(#clipPath2)" fill-rule="evenodd" stroke="none"/>
    </g>
    <g text-rendering="geometricPrecision" stroke-miterlimit="1.45" shape-rendering="geometricPrecision" transform="matrix(1,0,0,1,-264,-164)" stroke-linecap="butt">
      <path fill="none" d="M1002.6162 230 L1158.8721 230 L1158.8721 245 L1173.8721 245 L1173.8721 258 L1002.6162 258 Z" clip-path="url(#clipPath2)"/>
      <path fill="none" d="M1158.8721 230 L1158.8721 245 L1173.8721 245 Z" clip-path="url(#clipPath2)" fill-rule="evenodd"/>
      <text x="1030.6953" xml:space="preserve" font-size="20px" y="250.9238" clip-path="url(#clipPath2)" stroke="none">parser-core</text>
    </g>
    <g fill="rgb(255,204,0)" text-rendering="geometricPrecision" shape-rendering="geometricPrecision" transform="matrix(1,0,0,1,-264,-164)" stroke="rgb(255,204,0)">
      <path d="M1002.6162 360 L1158.8721 360 L1158.8721 375 L1173.8721 375 L1173.8721 388 L1002.6162 388 Z" stroke="none" clip-path="url(#clipPath2)"/>
      <path fill="white" d="M1158.8721 360 L1158.8721 375 L1173.8721 375 Z" clip-path="url(#clipPath2)" fill-rule="evenodd" stroke="none"/>
    </g>
    <g text-rendering="geometricPrecision" stroke-miterlimit="1.45" shape-rendering="geometricPrecision" transform="matrix(1,0,0,1,-264,-164)" stroke-linecap="butt">
      <path fill="none" d="M1002.6162 360 L1158.8721 360 L1158.8721 375 L1173.8721 375 L1173.8721 388 L1002.6162 388 Z" clip-path="url(#clipPath2)"/>
      <path fill="none" d="M1158.8721 360 L1158.8721 375 L1173.8721 375 Z" clip-path="url(#clipPath2)" fill-rule="evenodd"/>
      <text x="1020.0166" xml:space="preserve" font-size="20px" y="380.9238" clip-path="url(#clipPath2)" stroke="none">parser-theory</text>
    </g>
    <g fill="white" text-rendering="geometricPrecision" shape-rendering="geometricPrecision" transform="matrix(1,0,0,1,-264,-164)" stroke="white">
      <path d="M925.2651 295 L1056.521 295 L1056.521 310 L1071.521 310 L1071.521 323 L925.2651 323 Z" stroke="none" clip-path="url(#clipPath2)"/>
      <path d="M1056.521 295 L1056.521 310 L1071.521 310 Z" clip-path="url(#clipPath2)" fill-rule="evenodd" stroke="none"/>
    </g>
    <g text-rendering="geometricPrecision" stroke-miterlimit="1.45" shape-rendering="geometricPrecision" transform="matrix(1,0,0,1,-264,-164)" stroke-linecap="butt">
      <path fill="none" d="M925.2651 295 L1056.521 295 L1056.521 310 L1071.521 310 L1071.521 323 L925.2651 323 Z" clip-path="url(#clipPath2)"/>
      <path fill="none" d="M1056.521 295 L1056.521 310 L1071.521 310 Z" clip-path="url(#clipPath2)" fill-rule="evenodd"/>
      <text x="944.2866" xml:space="preserve" font-size="20px" y="315.9238" clip-path="url(#clipPath2)" stroke="none">parser-jvm</text>
    </g>
    <g fill="white" text-rendering="geometricPrecision" shape-rendering="geometricPrecision" transform="matrix(1,0,0,1,-264,-164)" stroke="white">
      <path d="M1117.6489 295 L1240.9048 295 L1240.9048 310 L1255.9048 310 L1255.9048 323 L1117.6489 323 Z" stroke="none" clip-path="url(#clipPath2)"/>
      <path d="M1240.9048 295 L1240.9048 310 L1255.9048 310 Z" clip-path="url(#clipPath2)" fill-rule="evenodd" stroke="none"/>
    </g>
    <g text-rendering="geometricPrecision" stroke-miterlimit="1.45" shape-rendering="geometricPrecision" transform="matrix(1,0,0,1,-264,-164)" stroke-linecap="butt">
      <path fill="none" d="M1117.6489 295 L1240.9048 295 L1240.9048 310 L1255.9048 310 L1255.9048 323 L1117.6489 323 Z" clip-path="url(#clipPath2)"/>
      <path fill="none" d="M1240.9048 295 L1240.9048 310 L1255.9048 310 Z" clip-path="url(#clipPath2)" fill-rule="evenodd"/>
      <text x="1143.1196" xml:space="preserve" font-size="20px" y="315.9238" clip-path="url(#clipPath2)" stroke="none">parser-js</text>
      <path fill="none" d="M678 295.0034 L678 268.9961" clip-path="url(#clipPath2)"/>
      <path d="M678 257.9961 L672 269.9961 L684 269.9961 Z" clip-path="url(#clipPath2)" stroke="none"/>
      <path fill="none" d="M678 360.0034 L678 333.9961" clip-path="url(#clipPath2)"/>
      <path d="M678 322.9961 L672 334.9961 L684 334.9961 Z" clip-path="url(#clipPath2)" stroke="none"/>
      <path fill="none" d="M678 425.0034 L678 398.9961" clip-path="url(#clipPath2)"/>
      <path d="M678 387.9961 L672 399.9961 L684 399.9961 Z" clip-path="url(#clipPath2)" stroke="none"/>
      <path fill="none" d="M786.7813 526.98 L703.842 459.9005" clip-path="url(#clipPath2)"/>
      <path d="M695.2892 452.9832 L700.8465 465.1945 L708.3926 455.8642 Z" clip-path="url(#clipPath2)" stroke="none"/>
      <path fill="none" d="M594.7538 526.98 L657.209 460.9733" clip-path="url(#clipPath2)"/>
      <path d="M664.7692 452.9832 L652.1634 457.5759 L660.8799 465.8235 Z" clip-path="url(#clipPath2)" stroke="none"/>
      <path fill="none" d="M846.9902 592.0034 L822.9804 563.4412" clip-path="url(#clipPath2)"/>
      <path d="M815.9023 555.0209 L819.031 568.0674 L828.2167 560.3458 Z" clip-path="url(#clipPath2)" stroke="none"/>
      <path fill="none" d="M785.7543 244 L737.1158 244" clip-path="url(#clipPath2)"/>
      <path d="M726.1158 244 L738.1158 250 L738.1158 238 Z" clip-path="url(#clipPath2)" stroke="none"/>
      <path fill="none" d="M785.7543 374 L737.1158 374" clip-path="url(#clipPath2)"/>
      <path d="M726.1158 374 L738.1158 380 L738.1158 368 Z" clip-path="url(#clipPath2)" stroke="none"/>
      <path fill="none" d="M884.8721 360.0034 L884.8721 269.019" clip-path="url(#clipPath2)"/>
      <path d="M884.8721 258.019 L878.8721 270.019 L890.8721 270.019 Z" clip-path="url(#clipPath2)" stroke="none"/>
      <path fill="none" d="M570.2981 244 L618.8549 244" clip-path="url(#clipPath2)"/>
      <path d="M629.8549 244 L617.8549 238 L617.8549 250 Z" clip-path="url(#clipPath2)" stroke="none"/>
      <path fill="none" d="M570.2981 309 L618.8549 309" clip-path="url(#clipPath2)"/>
      <path d="M629.8549 309 L617.8549 303 L617.8549 315 Z" clip-path="url(#clipPath2)" stroke="none"/>
      <path fill="none" d="M497.1279 295.0034 L497.1279 268.9961" clip-path="url(#clipPath2)"/>
      <path d="M497.1279 257.9961 L491.1279 269.9961 L503.1279 269.9961 Z" clip-path="url(#clipPath2)" stroke="none"/>
      <path fill="none" d="M570.2981 374 L618.8549 374" clip-path="url(#clipPath2)"/>
      <path d="M629.8549 374 L617.8549 368 L617.8549 380 Z" clip-path="url(#clipPath2)" stroke="none"/>
      <path fill="none" d="M497.1279 360.0034 L497.1279 333.9961" clip-path="url(#clipPath2)"/>
      <path d="M497.1279 322.9961 L491.1279 334.9961 L503.1279 334.9961 Z" clip-path="url(#clipPath2)" stroke="none"/>
      <path fill="none" d="M1053.2141 229.9995 L1036.9636 224.1619 L1011.3234 216.3684 L985.6831 209.9919 L960.0428 205.0324 L934.4026 201.4899 L908.7623 199.3644 L883.1221 198.6559 L857.4818 199.3644 L831.8416 201.4899 L806.2013 205.0324 L780.561 209.9919 L754.9208 216.3684 L729.2805 224.1619 L723.3824 226.2807" clip-path="url(#clipPath2)"/>
      <path d="M713.03 229.9995 L726.3519 231.5893 L722.295 220.2959 Z" clip-path="url(#clipPath2)" stroke="none"/>
      <path fill="none" d="M1088.2441 360.0034 L1088.2441 269.019" clip-path="url(#clipPath2)"/>
      <path d="M1088.2441 258.019 L1082.2441 270.019 L1094.2441 270.019 Z" clip-path="url(#clipPath2)" stroke="none"/>
      <path fill="none" d="M1050.7102 387.9956 L1036.9636 392.634 L1011.3234 399.9545 L985.6831 405.944 L960.0428 410.6025 L934.4026 413.93 L908.7623 415.9265 L883.1221 416.592 L857.4818 415.9265 L831.8416 413.93 L806.2013 410.6025 L780.561 405.944 L754.9208 399.9545 L729.2805 392.634 L725.9566 391.5125" clip-path="url(#clipPath2)"/>
      <path d="M715.5339 387.9956 L724.9858 397.5172 L728.8224 386.1471 Z" clip-path="url(#clipPath2)" stroke="none"/>
      <path fill="none" stroke-dasharray="6,2" d="M1068.8744 258.0125 L1021.8196 292.0528" clip-path="url(#clipPath2)"/>
      <path stroke-dasharray="6,2" d="M1018.5787 294.3973 L1031.8181 292.225 L1018.5787 294.3973 L1024.7845 282.5024 Z" clip-path="url(#clipPath2)" stroke="none"/>
      <path fill="none" stroke-miterlimit="10" d="M1018.5787 294.3973 L1031.8181 292.225 L1018.5787 294.3973 L1024.7845 282.5024 Z" clip-path="url(#clipPath2)" stroke-linecap="square"/>
      <path fill="none" stroke-dasharray="6,2" d="M1109.4855 258.0125 L1161.3556 292.2301" clip-path="url(#clipPath2)"/>
      <path stroke-dasharray="6,2" d="M1164.6946 294.4327 L1157.9816 282.8165 L1164.6946 294.4327 L1151.3738 292.8333 Z" clip-path="url(#clipPath2)" stroke="none"/>
      <path fill="none" stroke-miterlimit="10" d="M1164.6946 294.4327 L1157.9816 282.8165 L1164.6946 294.4327 L1151.3738 292.8333 Z" clip-path="url(#clipPath2)" stroke-linecap="square"/>
    </g>
    <g fill="rgb(210,210,210)" text-rendering="geometricPrecision" shape-rendering="geometricPrecision" transform="matrix(1,0,0,1,-264,-164) translate(4,4)" stroke="rgb(210,210,210)">
      <rect x="931.3839" width="340.5209" height="166.9425" y="449.8847" clip-path="url(#clipPath3)" stroke="none"/>
    </g>
    <g fill="rgb(242,240,216)" text-rendering="geometricPrecision" shape-rendering="geometricPrecision" transform="matrix(1,0,0,1,-264,-164)" stroke="rgb(242,240,216)">
      <rect x="931.3839" width="340.5209" height="166.9425" y="449.8847" clip-path="url(#clipPath2)" stroke="none"/>
      <rect x="931.3839" y="449.8847" clip-path="url(#clipPath2)" fill="rgb(183,182,158)" width="340.5209" height="21.4609" stroke="none"/>
    </g>
    <g font-size="15px" stroke-linecap="butt" transform="matrix(1,0,0,1,-264,-164)" text-rendering="geometricPrecision" font-family="sans-serif" shape-rendering="geometricPrecision" stroke-miterlimit="1.45">
      <text x="1214.541" xml:space="preserve" y="465.808" clip-path="url(#clipPath2)" stroke="none">Legend</text>
      <rect fill="none" x="931.3839" width="340.5209" height="166.9425" y="449.8847" clip-path="url(#clipPath2)"/>
    </g>
    <g fill="rgb(255,204,0)" text-rendering="geometricPrecision" shape-rendering="geometricPrecision" transform="matrix(1,0,0,1,-264,-164)" stroke="rgb(255,204,0)">
      <path d="M936.3839 476.3456 L1039.3197 476.3456 L1039.3197 491.3456 L1054.3197 491.3456 L1054.3197 504.3456 L936.3839 504.3456 Z" stroke="none" clip-path="url(#clipPath2)"/>
      <path fill="white" d="M1039.3197 476.3456 L1039.3197 491.3456 L1054.3197 491.3456 Z" clip-path="url(#clipPath2)" fill-rule="evenodd" stroke="none"/>
    </g>
    <g text-rendering="geometricPrecision" stroke-miterlimit="1.45" shape-rendering="geometricPrecision" transform="matrix(1,0,0,1,-264,-164)" stroke-linecap="butt">
      <path fill="none" d="M936.3839 476.3456 L1039.3197 476.3456 L1039.3197 491.3456 L1054.3197 491.3456 L1054.3197 504.3456 L936.3839 504.3456 Z" clip-path="url(#clipPath2)"/>
      <path fill="none" d="M1039.3197 476.3456 L1039.3197 491.3456 L1054.3197 491.3456 Z" clip-path="url(#clipPath2)" fill-rule="evenodd"/>
      <text x="957.8762" xml:space="preserve" font-size="20px" y="497.2694" clip-path="url(#clipPath2)" stroke="none">module</text>
    </g>
    <g fill="rgb(153,204,0)" text-rendering="geometricPrecision" shape-rendering="geometricPrecision" transform="matrix(1,0,0,1,-264,-164)" stroke="rgb(153,204,0)">
      <path d="M936.3839 512.1728 L1039.3197 512.1728 L1039.3197 527.1728 L1054.3197 527.1728 L1054.3197 540.1728 L936.3839 540.1728 Z" stroke="none" clip-path="url(#clipPath2)"/>
      <path fill="white" d="M1039.3197 512.1728 L1039.3197 527.1728 L1054.3197 527.1728 Z" clip-path="url(#clipPath2)" fill-rule="evenodd" stroke="none"/>
    </g>
    <g text-rendering="geometricPrecision" stroke-miterlimit="1.45" shape-rendering="geometricPrecision" transform="matrix(1,0,0,1,-264,-164)" stroke-linecap="butt">
      <path fill="none" d="M936.3839 512.1728 L1039.3197 512.1728 L1039.3197 527.1728 L1054.3197 527.1728 L1054.3197 540.1728 L936.3839 540.1728 Z" clip-path="url(#clipPath2)"/>
      <path fill="none" d="M1039.3197 512.1728 L1039.3197 527.1728 L1054.3197 527.1728 Z" clip-path="url(#clipPath2)" fill-rule="evenodd"/>
      <text x="975.0833" xml:space="preserve" font-size="20px" y="533.0966" clip-path="url(#clipPath2)" stroke="none">root</text>
    </g>
    <g fill="yellow" text-rendering="geometricPrecision" shape-rendering="geometricPrecision" transform="matrix(1,0,0,1,-264,-164)" stroke="yellow">
      <path d="M937.5118 548 L1039.3197 548 L1039.3197 563 L1054.3197 563 L1054.3197 576 L937.5118 576 Z" stroke="none" clip-path="url(#clipPath2)"/>
      <path fill="white" d="M1039.3197 548 L1039.3197 563 L1054.3197 563 Z" clip-path="url(#clipPath2)" fill-rule="evenodd" stroke="none"/>
    </g>
    <g text-rendering="geometricPrecision" stroke-miterlimit="1.45" shape-rendering="geometricPrecision" transform="matrix(1,0,0,1,-264,-164)" stroke-linecap="butt">
      <path fill="none" d="M937.5118 548 L1039.3197 548 L1039.3197 563 L1054.3197 563 L1054.3197 576 L937.5118 576 Z" clip-path="url(#clipPath2)"/>
      <path fill="none" d="M1039.3197 548 L1039.3197 563 L1054.3197 563 Z" clip-path="url(#clipPath2)" fill-rule="evenodd"/>
      <text x="956.3308" xml:space="preserve" font-size="20px" y="568.9238" clip-path="url(#clipPath2)" stroke="none">api only</text>
    </g>
    <g fill="white" text-rendering="geometricPrecision" shape-rendering="geometricPrecision" transform="matrix(1,0,0,1,-264,-164)" stroke="white">
      <path d="M1068.6489 476.3456 L1251.9048 476.3456 L1251.9048 491.3456 L1266.9048 491.3456 L1266.9048 504.3456 L1068.6489 504.3456 Z" stroke="none" clip-path="url(#clipPath2)"/>
      <path d="M1251.9048 476.3456 L1251.9048 491.3456 L1266.9048 491.3456 Z" clip-path="url(#clipPath2)" fill-rule="evenodd" stroke="none"/>
    </g>
    <g text-rendering="geometricPrecision" stroke-miterlimit="1.45" shape-rendering="geometricPrecision" transform="matrix(1,0,0,1,-264,-164)" stroke-linecap="butt">
      <path fill="none" d="M1068.6489 476.3456 L1251.9048 476.3456 L1251.9048 491.3456 L1266.9048 491.3456 L1266.9048 504.3456 L1068.6489 504.3456 Z" clip-path="url(#clipPath2)"/>
      <path fill="none" d="M1251.9048 476.3456 L1251.9048 491.3456 L1266.9048 491.3456 Z" clip-path="url(#clipPath2)" fill-rule="evenodd"/>
      <text x="1088.5435" xml:space="preserve" font-size="20px" y="497.2694" clip-path="url(#clipPath2)" stroke="none">implementation</text>
    </g>
    <g fill="rgb(153,204,255)" text-rendering="geometricPrecision" shape-rendering="geometricPrecision" transform="matrix(1,0,0,1,-264,-164)" stroke="rgb(153,204,255)">
      <path d="M937.5118 583.8272 L1039.3197 583.8272 L1039.3197 598.8272 L1054.3197 598.8272 L1054.3197 611.8272 L937.5118 611.8272 Z" stroke="none" clip-path="url(#clipPath2)"/>
      <path fill="white" d="M1039.3197 583.8272 L1039.3197 598.8272 L1054.3197 598.8272 Z" clip-path="url(#clipPath2)" fill-rule="evenodd" stroke="none"/>
    </g>
    <g text-rendering="geometricPrecision" stroke-miterlimit="1.45" stroke-dasharray="6,2" shape-rendering="geometricPrecision" transform="matrix(1,0,0,1,-264,-164)" stroke-linecap="butt">
      <path fill="none" d="M937.5118 583.8272 L1039.3197 583.8272 L1039.3197 598.8272 L1054.3197 598.8272 L1054.3197 611.8272 L937.5118 611.8272 Z" clip-path="url(#clipPath2)"/>
      <path fill="none" d="M1039.3197 583.8272 L1039.3197 598.8272 L1054.3197 598.8272 Z" clip-path="url(#clipPath2)" fill-rule="evenodd"/>
      <text x="967.4832" font-size="20px" y="604.751" clip-path="url(#clipPath2)" stroke-dasharray="none" stroke="none" xml:space="preserve">utility</text>
    </g>
    <g fill="rgb(255,204,0)" text-rendering="geometricPrecision" shape-rendering="geometricPrecision" transform="matrix(1,0,0,1,-264,-164)" stroke="rgb(255,204,0)">
      <path d="M424 425 L553 425 L553 440 L568 440 L568 453 L424 453 Z" stroke="none" clip-path="url(#clipPath2)"/>
      <path fill="white" d="M553 425 L553 440 L568 440 Z" clip-path="url(#clipPath2)" fill-rule="evenodd" stroke="none"/>
    </g>
    <g text-rendering="geometricPrecision" stroke-miterlimit="1.45" shape-rendering="geometricPrecision" transform="matrix(1,0,0,1,-264,-164)" stroke-linecap="butt">
      <path fill="none" d="M424 425 L553 425 L553 440 L568 440 L568 453 L424 453 Z" clip-path="url(#clipPath2)"/>
      <path fill="none" d="M553 425 L553 440 L568 440 Z" clip-path="url(#clipPath2)" fill-rule="evenodd"/>
      <text x="451.8789" xml:space="preserve" font-size="20px" y="445.9238" clip-path="url(#clipPath2)" stroke="none">dsl-solve</text>
    </g>
    <g fill="rgb(255,204,0)" text-rendering="geometricPrecision" shape-rendering="geometricPrecision" transform="matrix(1,0,0,1,-264,-164)" stroke="rgb(255,204,0)">
      <path d="M701.1161 592 L758.744 592 L758.744 607 L773.744 607 L773.744 620 L701.1161 620 Z" stroke="none" clip-path="url(#clipPath2)"/>
      <path fill="white" d="M758.744 592 L758.744 607 L773.744 607 Z" clip-path="url(#clipPath2)" fill-rule="evenodd" stroke="none"/>
    </g>
    <g text-rendering="geometricPrecision" stroke-miterlimit="1.45" shape-rendering="geometricPrecision" transform="matrix(1,0,0,1,-264,-164)" stroke-linecap="butt">
      <path fill="none" d="M701.1161 592 L758.744 592 L758.744 607 L773.744 607 L773.744 620 L701.1161 620 Z" clip-path="url(#clipPath2)"/>
      <path fill="none" d="M758.744 592 L758.744 607 L773.744 607 Z" clip-path="url(#clipPath2)" fill-rule="evenodd"/>
      <text x="722.1517" xml:space="preserve" font-size="20px" y="612.9238" clip-path="url(#clipPath2)" stroke="none">ide</text>
    </g>
    <g fill="rgb(255,204,0)" text-rendering="geometricPrecision" shape-rendering="geometricPrecision" transform="matrix(1,0,0,1,-264,-164)" stroke="rgb(255,204,0)">
      <path d="M785.7441 425 L878.744 425 L878.744 440 L893.744 440 L893.744 453 L785.7441 453 Z" stroke="none" clip-path="url(#clipPath2)"/>
      <path fill="white" d="M878.744 425 L878.744 440 L893.744 440 Z" clip-path="url(#clipPath2)" fill-rule="evenodd" stroke="none"/>
    </g>
    <g text-rendering="geometricPrecision" stroke-miterlimit="1.45" shape-rendering="geometricPrecision" transform="matrix(1,0,0,1,-264,-164)" stroke-linecap="butt">
      <path fill="none" d="M785.7441 425 L878.744 425 L878.744 440 L893.744 440 L893.744 453 L785.7441 453 Z" clip-path="url(#clipPath2)"/>
      <path fill="none" d="M878.744 425 L878.744 440 L893.744 440 Z" clip-path="url(#clipPath2)" fill-rule="evenodd"/>
      <text x="805.6474" xml:space="preserve" font-size="20px" y="445.9238" clip-path="url(#clipPath2)" stroke="none">oop-lib</text>
    </g>
    <g fill="rgb(255,204,0)" text-rendering="geometricPrecision" shape-rendering="geometricPrecision" transform="matrix(1,0,0,1,-264,-164)" stroke="rgb(255,204,0)">
      <path d="M785.7441 476 L878.744 476 L878.744 491 L893.744 491 L893.744 504 L785.7441 504 Z" stroke="none" clip-path="url(#clipPath2)"/>
      <path fill="white" d="M878.744 476 L878.744 491 L893.744 491 Z" clip-path="url(#clipPath2)" fill-rule="evenodd" stroke="none"/>
    </g>
    <g text-rendering="geometricPrecision" stroke-miterlimit="1.45" shape-rendering="geometricPrecision" transform="matrix(1,0,0,1,-264,-164)" stroke-linecap="butt">
      <path fill="none" d="M785.7441 476 L878.744 476 L878.744 491 L893.744 491 L893.744 504 L785.7441 504 Z" clip-path="url(#clipPath2)"/>
      <path fill="none" d="M878.744 476 L878.744 491 L893.744 491 Z" clip-path="url(#clipPath2)" fill-rule="evenodd"/>
      <text x="815.3349" xml:space="preserve" font-size="20px" y="496.9238" clip-path="url(#clipPath2)" stroke="none">io-lib</text>
    </g>
    <g fill="yellow" text-rendering="geometricPrecision" shape-rendering="geometricPrecision" transform="matrix(1,0,0,1,-264,-164)" stroke="yellow">
      <path d="M285.7441 498.5 L409 498.5 L409 513.5 L424 513.5 L424 526.5 L285.7441 526.5 Z" stroke="none" clip-path="url(#clipPath2)"/>
      <path fill="white" d="M409 498.5 L409 513.5 L424 513.5 Z" clip-path="url(#clipPath2)" fill-rule="evenodd" stroke="none"/>
    </g>
    <g text-rendering="geometricPrecision" stroke-miterlimit="1.45" shape-rendering="geometricPrecision" transform="matrix(1,0,0,1,-264,-164)" stroke-linecap="butt">
      <path fill="none" d="M285.7441 498.5 L409 498.5 L409 513.5 L424 513.5 L424 526.5 L285.7441 526.5 Z" clip-path="url(#clipPath2)"/>
      <path fill="none" d="M409 498.5 L409 513.5 L424 513.5 Z" clip-path="url(#clipPath2)" fill-rule="evenodd"/>
      <text x="309.6133" xml:space="preserve" font-size="20px" y="519.4238" clip-path="url(#clipPath2)" stroke="none">solve-plp</text>
    </g>
    <g fill="rgb(255,204,0)" text-rendering="geometricPrecision" shape-rendering="geometricPrecision" transform="matrix(1,0,0,1,-264,-164)" stroke="rgb(255,204,0)">
      <path d="M265.2441 572 L429.5 572 L429.5 587 L444.5 587 L444.5 600 L265.2441 600 Z" stroke="none" clip-path="url(#clipPath2)"/>
      <path fill="white" d="M429.5 572 L429.5 587 L444.5 587 Z" clip-path="url(#clipPath2)" fill-rule="evenodd" stroke="none"/>
    </g>
    <g text-rendering="geometricPrecision" stroke-miterlimit="1.45" shape-rendering="geometricPrecision" transform="matrix(1,0,0,1,-264,-164)" stroke-linecap="butt">
      <path fill="none" d="M265.2441 572 L429.5 572 L429.5 587 L444.5 587 L444.5 600 L265.2441 600 Z" clip-path="url(#clipPath2)"/>
      <path fill="none" d="M429.5 572 L429.5 587 L444.5 587 Z" clip-path="url(#clipPath2)" fill-rule="evenodd"/>
      <text x="286.918" xml:space="preserve" font-size="20px" y="592.9238" clip-path="url(#clipPath2)" stroke="none">solve-problog</text>
    </g>
    <g fill="rgb(153,204,255)" text-rendering="geometricPrecision" shape-rendering="geometricPrecision" transform="matrix(1,0,0,1,-264,-164)" stroke="rgb(153,204,255)">
      <path d="M635.3721 165 L705.6279 165 L705.6279 180 L720.6279 180 L720.6279 193 L635.3721 193 Z" stroke="none" clip-path="url(#clipPath2)"/>
      <path fill="white" d="M705.6279 165 L705.6279 180 L720.6279 180 Z" clip-path="url(#clipPath2)" fill-rule="evenodd" stroke="none"/>
    </g>
    <g text-rendering="geometricPrecision" stroke-miterlimit="1.45" stroke-dasharray="6,2" shape-rendering="geometricPrecision" transform="matrix(1,0,0,1,-264,-164)" stroke-linecap="butt">
      <path fill="none" d="M635.3721 165 L705.6279 165 L705.6279 180 L720.6279 180 L720.6279 193 L635.3721 193 Z" clip-path="url(#clipPath2)"/>
      <path fill="none" d="M705.6279 165 L705.6279 180 L720.6279 180 Z" clip-path="url(#clipPath2)" fill-rule="evenodd"/>
      <text x="656.9746" font-size="20px" y="185.9238" clip-path="url(#clipPath2)" stroke-dasharray="none" stroke="none" xml:space="preserve">utils</text>
    </g>
    <g fill="rgb(153,204,255)" text-rendering="geometricPrecision" shape-rendering="geometricPrecision" transform="matrix(1,0,0,1,-264,-164)" stroke="rgb(153,204,255)">
      <path d="M312.2441 425 L382.5 425 L382.5 440 L397.5 440 L397.5 453 L312.2441 453 Z" stroke="none" clip-path="url(#clipPath2)"/>
      <path fill="white" d="M382.5 425 L382.5 440 L397.5 440 Z" clip-path="url(#clipPath2)" fill-rule="evenodd" stroke="none"/>
    </g>
    <g text-rendering="geometricPrecision" stroke-miterlimit="1.45" stroke-dasharray="6,2" shape-rendering="geometricPrecision" transform="matrix(1,0,0,1,-264,-164)" stroke-linecap="butt">
      <path fill="none" d="M312.2441 425 L382.5 425 L382.5 440 L397.5 440 L397.5 453 L312.2441 453 Z" clip-path="url(#clipPath2)"/>
      <path fill="none" d="M382.5 425 L382.5 440 L397.5 440 Z" clip-path="url(#clipPath2)" fill-rule="evenodd"/>
      <text x="335.8291" font-size="20px" y="445.9238" clip-path="url(#clipPath2)" stroke-dasharray="none" stroke="none" xml:space="preserve">bdd</text>
    </g>
    <g fill="rgb(255,204,0)" text-rendering="geometricPrecision" shape-rendering="geometricPrecision" transform="matrix(1,0,0,1,-264,-164)" stroke="rgb(255,204,0)">
      <path d="M512.8603 592 L615.7961 592 L615.7961 607 L630.7961 607 L630.7961 620 L512.8603 620 Z" stroke="none" clip-path="url(#clipPath2)"/>
      <path fill="white" d="M615.7961 592 L615.7961 607 L630.7961 607 Z" clip-path="url(#clipPath2)" fill-rule="evenodd" stroke="none"/>
    </g>
    <g text-rendering="geometricPrecision" stroke-miterlimit="1.45" shape-rendering="geometricPrecision" transform="matrix(1,0,0,1,-264,-164)" stroke-linecap="butt">
      <path fill="none" d="M512.8603 592 L615.7961 592 L615.7961 607 L630.7961 607 L630.7961 620 L512.8603 620 Z" clip-path="url(#clipPath2)"/>
      <path fill="none" d="M615.7961 592 L615.7961 607 L630.7961 607 Z" clip-path="url(#clipPath2)" fill-rule="evenodd"/>
      <text x="537.4678" xml:space="preserve" font-size="20px" y="612.9238" clip-path="url(#clipPath2)" stroke="none">ide-plp</text>
      <path fill="none" d="M1084.3197 533 L1225.9048 533" clip-path="url(#clipPath2)"/>
      <path d="M1236.9048 533 L1224.9048 527 L1224.9048 539 Z" clip-path="url(#clipPath2)" stroke="none"/>
      <text x="1111.1676" xml:space="preserve" y="524.5607" clip-path="url(#clipPath2)" font-family="sans-serif" stroke="none">depends on</text>
      <path fill="none" stroke-dasharray="6,2" d="M1084.3197 563 L1231.9048 563" clip-path="url(#clipPath2)"/>
      <path stroke-dasharray="6,2" d="M1235.9048 563 L1223.9048 557 L1235.9048 563 L1223.9048 569 Z" clip-path="url(#clipPath2)" stroke="none"/>
      <path fill="none" stroke-miterlimit="10" d="M1235.9048 563 L1223.9048 557 L1235.9048 563 L1223.9048 569 Z" clip-path="url(#clipPath2)" stroke-linecap="square"/>
      <text x="1146.8662" xml:space="preserve" y="554.5607" clip-path="url(#clipPath2)" font-family="sans-serif" stroke="none">uses</text>
      <path fill="none" d="M568.0269 439 L618.8599 439" clip-path="url(#clipPath2)"/>
      <path d="M629.8599 439 L617.8599 433 L617.8599 445 Z" clip-path="url(#clipPath2)" stroke="none"/>
      <path fill="none" d="M496.2429 425.0034 L496.6942 398.9944" clip-path="url(#clipPath2)"/>
      <path d="M496.8851 387.996 L490.6778 399.8901 L502.676 400.0983 Z" clip-path="url(#clipPath2)" stroke="none"/>
      <path fill="none" d="M751.7897 592.0034 L781.8544 562.6989" clip-path="url(#clipPath2)"/>
      <path d="M789.7314 555.0209 L776.9503 559.1003 L785.3262 567.6935 Z" clip-path="url(#clipPath2)" stroke="none"/>
      <path fill="none" d="M785.7635 439 L737.12 439" clip-path="url(#clipPath2)"/>
      <path d="M726.12 439 L738.12 445 L738.12 433 Z" clip-path="url(#clipPath2)" stroke="none"/>
      <path fill="none" d="M795.3198 475.9924 L732.9154 456.3155" clip-path="url(#clipPath2)"/>
      <path d="M722.4246 453.0076 L732.0648 462.3385 L735.6734 450.894 Z" clip-path="url(#clipPath2)" stroke="none"/>
      <path fill="none" d="M416.4447 498.4944 L619.1583 452.3844" clip-path="url(#clipPath2)"/>
      <path d="M629.8843 449.9446 L616.8524 446.7556 L619.5139 458.4567 Z" clip-path="url(#clipPath2)" stroke="none"/>
      <path fill="none" d="M354.8721 571.9675 L354.8721 537.5248" clip-path="url(#clipPath2)"/>
      <path d="M354.8721 526.5248 L348.8721 538.5248 L360.8721 538.5248 Z" clip-path="url(#clipPath2)" stroke="none"/>
      <path fill="none" d="M678 230.0034 L678 203.996" clip-path="url(#clipPath2)"/>
      <path d="M678 192.996 L672 204.996 L684 204.996 Z" clip-path="url(#clipPath2)" stroke="none"/>
      <path fill="none" d="M354.8721 498.4675 L354.8721 464.0248" clip-path="url(#clipPath2)"/>
      <path d="M354.8721 453.0248 L348.8721 465.0248 L360.8721 465.0248 Z" clip-path="url(#clipPath2)" stroke="none"/>
      <path fill="none" d="M512.8486 600.563 L455.4202 595.269" clip-path="url(#clipPath2)"/>
      <path d="M444.4666 594.2592 L455.8652 601.3354 L456.9668 589.3861 Z" clip-path="url(#clipPath2)" stroke="none"/>
      <path fill="none" d="M630.8158 606 L690.1198 606" clip-path="url(#clipPath2)"/>
      <path d="M701.1198 606 L689.1198 600 L689.1198 612 Z" clip-path="url(#clipPath2)" stroke="none"/>
    </g>
  </g>
</svg>
